<svg width="32" height="32" viewBox="0 0 32 32" fill="none" xmlns="http://www.w3.org/2000/svg">
<mask id="mask0_705_71662" style="mask-type:alpha" maskUnits="userSpaceOnUse" x="0" y="0" width="32" height="32">
<rect width="32" height="32" fill="#D9D9D9"/>
</mask>
<g mask="url(#mask0_705_71662)">
<path d="M14.666 22.6666C14.3549 19.8444 13.216 17.4611 11.2493 15.5166C9.28268 13.5722 6.91046 12.4333 4.13268 12.1C3.73268 12.0555 3.38824 11.9 3.09935 11.6333C2.81046 11.3666 2.66602 11.0444 2.66602 10.6666C2.66602 10.2888 2.79935 9.97218 3.06602 9.71663C3.33268 9.46107 3.6549 9.35551 4.03268 9.39996C6.63268 9.6444 8.99379 10.5 11.116 11.9666C13.2382 13.4333 14.866 15.3555 15.9993 17.7333C16.8438 15.9333 17.9549 14.3388 19.3327 12.95C20.7105 11.5611 22.2549 10.3555 23.966 9.33329H19.9993C19.6216 9.33329 19.3049 9.20551 19.0494 8.94996C18.7938 8.6944 18.666 8.37774 18.666 7.99996C18.666 7.62218 18.7938 7.30551 19.0494 7.04996C19.3049 6.7944 19.6216 6.66663 19.9993 6.66663H26.666C27.0438 6.66663 27.3605 6.7944 27.616 7.04996C27.8716 7.30551 27.9993 7.62218 27.9993 7.99996V14.6666C27.9993 15.0444 27.8716 15.3611 27.616 15.6166C27.3605 15.8722 27.0438 16 26.666 16C26.2882 16 25.9716 15.8722 25.716 15.6166C25.4605 15.3611 25.3327 15.0444 25.3327 14.6666V11.6C23.266 12.8666 21.4882 14.4333 19.9993 16.3C18.5105 18.1666 17.6216 20.2888 17.3327 22.6666H18.666C19.0438 22.6666 19.3605 22.7944 19.616 23.05C19.8716 23.3055 19.9993 23.6222 19.9993 24C19.9993 24.3777 19.8716 24.6944 19.616 24.95C19.3605 25.2055 19.0438 25.3333 18.666 25.3333H13.3327C12.9549 25.3333 12.6382 25.2055 12.3827 24.95C12.1271 24.6944 11.9993 24.3777 11.9993 24C11.9993 23.6222 12.1271 23.3055 12.3827 23.05C12.6382 22.7944 12.9549 22.6666 13.3327 22.6666H14.666Z" fill="white"/>
</g>
</svg>
