<svg width="8" height="14" viewBox="0 0 8 14" fill="none" xmlns="http://www.w3.org/2000/svg">
<path d="M7.22297 6.99704C7.22297 7.14148 7.2004 7.2769 7.15526 7.40329C7.11012 7.52968 7.03339 7.64704 6.92505 7.75537L1.94172 12.7387C1.74311 12.9373 1.49033 13.0366 1.18339 13.0366C0.876442 13.0366 0.623664 12.9373 0.425053 12.7387C0.226442 12.5401 0.127136 12.2873 0.127136 11.9804C0.127136 11.6734 0.226442 11.4206 0.425053 11.222L4.65005 6.99704L0.425053 2.77204C0.226442 2.57343 0.127136 2.32065 0.127136 2.0137C0.127136 1.70676 0.226442 1.45398 0.425053 1.25537C0.623664 1.05676 0.876442 0.957454 1.18339 0.957454C1.49033 0.957454 1.74311 1.05676 1.94172 1.25537L6.92505 6.2387C7.03339 6.34704 7.11012 6.4644 7.15526 6.59079C7.2004 6.71718 7.22297 6.85259 7.22297 6.99704Z" fill="#146C8F"/>
</svg>
