<svg width="20" height="20" viewBox="0 0 20 20" fill="none" xmlns="http://www.w3.org/2000/svg">
<mask id="mask0_705_111153" style="mask-type:alpha" maskUnits="userSpaceOnUse" x="0" y="0" width="20" height="20">
<rect width="20" height="20" fill="#D9D9D9"/>
</mask>
<g mask="url(#mask0_705_111153)">
<path d="M9.99935 18.3334C8.84657 18.3334 7.76324 18.1146 6.74935 17.6771C5.73546 17.2396 4.85352 16.6459 4.10352 15.8959C3.35352 15.1459 2.75977 14.2639 2.32227 13.25C1.88477 12.2361 1.66602 11.1528 1.66602 10C1.66602 8.84724 1.88477 7.76391 2.32227 6.75002C2.75977 5.73613 3.35352 4.85419 4.10352 4.10419C4.85352 3.35419 5.73546 2.76044 6.74935 2.32294C7.76324 1.88544 8.84657 1.66669 9.99935 1.66669C11.1521 1.66669 12.2355 1.88544 13.2493 2.32294C14.2632 2.76044 15.1452 3.35419 15.8952 4.10419C16.6452 4.85419 17.2389 5.73613 17.6764 6.75002C18.1139 7.76391 18.3327 8.84724 18.3327 10V11.2084C18.3327 12.0278 18.0514 12.7257 17.4889 13.3021C16.9264 13.8785 16.2355 14.1667 15.416 14.1667C14.9299 14.1667 14.4716 14.0625 14.041 13.8542C13.6105 13.6459 13.2493 13.3472 12.9577 12.9584C12.5549 13.3611 12.1 13.6632 11.5931 13.8646C11.0862 14.066 10.5549 14.1667 9.99935 14.1667C8.84657 14.1667 7.86393 13.7604 7.05143 12.9479C6.23893 12.1354 5.83268 11.1528 5.83268 10C5.83268 8.84724 6.23893 7.8646 7.05143 7.0521C7.86393 6.2396 8.84657 5.83335 9.99935 5.83335C11.1521 5.83335 12.1348 6.2396 12.9473 7.0521C13.7598 7.8646 14.166 8.84724 14.166 10V11.2084C14.166 11.5695 14.2841 11.875 14.5202 12.125C14.7563 12.375 15.0549 12.5 15.416 12.5C15.7771 12.5 16.0757 12.375 16.3118 12.125C16.548 11.875 16.666 11.5695 16.666 11.2084V10C16.666 8.13891 16.0202 6.56252 14.7285 5.27085C13.4368 3.97919 11.8605 3.33335 9.99935 3.33335C8.13824 3.33335 6.56185 3.97919 5.27018 5.27085C3.97852 6.56252 3.33268 8.13891 3.33268 10C3.33268 11.8611 3.97852 13.4375 5.27018 14.7292C6.56185 16.0209 8.13824 16.6667 9.99935 16.6667H13.3327C13.5688 16.6667 13.7667 16.7465 13.9264 16.9063C14.0862 17.066 14.166 17.2639 14.166 17.5C14.166 17.7361 14.0862 17.934 13.9264 18.0938C13.7667 18.2535 13.5688 18.3334 13.3327 18.3334H9.99935ZM9.99935 12.5C10.6938 12.5 11.2841 12.257 11.7702 11.7709C12.2563 11.2847 12.4993 10.6945 12.4993 10C12.4993 9.30558 12.2563 8.7153 11.7702 8.22919C11.2841 7.74308 10.6938 7.50002 9.99935 7.50002C9.3049 7.50002 8.71463 7.74308 8.22852 8.22919C7.7424 8.7153 7.49935 9.30558 7.49935 10C7.49935 10.6945 7.7424 11.2847 8.22852 11.7709C8.71463 12.257 9.3049 12.5 9.99935 12.5Z" fill="#146C8F"/>
</g>
</svg>
