<svg width="8" height="14" viewBox="0 0 8 14" fill="none" xmlns="http://www.w3.org/2000/svg">
<path d="M0.77703 6.99704C0.77703 7.14148 0.7996 7.2769 0.844738 7.40329C0.889877 7.52968 0.966613 7.64704 1.07495 7.75537L6.05828 12.7387C6.25689 12.9373 6.50967 13.0366 6.81661 13.0366C7.12356 13.0366 7.37634 12.9373 7.57495 12.7387C7.77356 12.5401 7.87286 12.2873 7.87286 11.9804C7.87286 11.6734 7.77356 11.4206 7.57495 11.222L3.34995 6.99704L7.57495 2.77204C7.77356 2.57343 7.87286 2.32065 7.87286 2.0137C7.87286 1.70676 7.77356 1.45398 7.57495 1.25537C7.37634 1.05676 7.12356 0.957454 6.81661 0.957454C6.50967 0.957454 6.25689 1.05676 6.05828 1.25537L1.07495 6.2387C0.966613 6.34704 0.889877 6.4644 0.844738 6.59079C0.7996 6.71718 0.77703 6.85259 0.77703 6.99704Z" fill="#146C8F"/>
</svg>
