<svg width="16" height="17" viewBox="0 0 16 17" fill="none" xmlns="http://www.w3.org/2000/svg">
    <mask id="mask0_639_194518" style="mask-type:alpha" maskUnits="userSpaceOnUse" x="0" y="0" width="16" height="17">
        <rect y="0.5" width="16" height="16" fill="#D9D9D9"/>
    </mask>
    <g mask="url(#mask0_639_194518)">
        <path d="M7.99999 10.4833C7.9111 10.4833 7.82777 10.4694 7.74999 10.4417C7.67221 10.4139 7.59999 10.3667 7.53333 10.3L4.46666 7.23334C4.34444 7.11111 4.28333 6.95556 4.28333 6.76667C4.28333 6.57778 4.34444 6.42222 4.46666 6.3C4.58888 6.17778 4.74444 6.11667 4.93333 6.11667C5.12221 6.11667 5.27777 6.17778 5.39999 6.3L7.99999 8.9L10.6 6.3C10.7222 6.17778 10.8778 6.11667 11.0667 6.11667C11.2555 6.11667 11.4111 6.17778 11.5333 6.3C11.6555 6.42222 11.7167 6.57778 11.7167 6.76667C11.7167 6.95556 11.6555 7.11111 11.5333 7.23334L8.46666 10.3C8.39999 10.3667 8.32777 10.4139 8.24999 10.4417C8.17221 10.4694 8.08888 10.4833 7.99999 10.4833Z" fill="white"/>
    </g>
</svg>
