<svg width="26" height="26" viewBox="0 0 26 26" fill="none" xmlns="http://www.w3.org/2000/svg">
<mask id="mask0_639_194471" style="mask-type:alpha" maskUnits="userSpaceOnUse" x="0" y="0" width="26" height="26">
<rect y="26" width="26" height="26" transform="rotate(-90 0 26)" fill="#D9D9D9"/>
</mask>
<g mask="url(#mask0_639_194471)">
<path d="M16.223 12.997C16.223 13.1415 16.2004 13.2769 16.1553 13.4033C16.1101 13.5297 16.0334 13.647 15.9251 13.7554L10.9417 18.7387C10.7431 18.9373 10.4903 19.0366 10.1834 19.0366C9.87644 19.0366 9.62366 18.9373 9.42505 18.7387C9.22644 18.5401 9.12714 18.2873 9.12714 17.9804C9.12714 17.6734 9.22644 17.4206 9.42505 17.222L13.6501 12.997L9.42505 8.77204C9.22644 8.57343 9.12714 8.32065 9.12714 8.0137C9.12714 7.70676 9.22644 7.45398 9.42505 7.25537C9.62366 7.05676 9.87644 6.95745 10.1834 6.95745C10.4903 6.95745 10.7431 7.05676 10.9417 7.25537L15.9251 12.2387C16.0334 12.347 16.1101 12.4644 16.1553 12.5908C16.2004 12.7172 16.223 12.8526 16.223 12.997Z" fill="white"/>
</g>
</svg>
