<svg width="26" height="26" viewBox="0 0 26 26" fill="none" xmlns="http://www.w3.org/2000/svg">
<mask id="mask0_639_194463" style="mask-type:alpha" maskUnits="userSpaceOnUse" x="0" y="0" width="26" height="26">
<rect width="26" height="26" transform="matrix(0 -1 -1 0 26 26)" fill="#D9D9D9"/>
</mask>
<g mask="url(#mask0_639_194463)">
<path d="M9.77703 12.997C9.77703 13.1415 9.7996 13.2769 9.84474 13.4033C9.88988 13.5297 9.96661 13.647 10.0749 13.7554L15.0583 18.7387C15.2569 18.9373 15.5097 19.0366 15.8166 19.0366C16.1236 19.0366 16.3763 18.9373 16.5749 18.7387C16.7736 18.5401 16.8729 18.2873 16.8729 17.9804C16.8729 17.6734 16.7736 17.4206 16.5749 17.222L12.3499 12.997L16.5749 8.77204C16.7736 8.57343 16.8729 8.32065 16.8729 8.0137C16.8729 7.70676 16.7736 7.45398 16.5749 7.25537C16.3763 7.05676 16.1236 6.95745 15.8166 6.95745C15.5097 6.95745 15.2569 7.05676 15.0583 7.25537L10.0749 12.2387C9.96661 12.347 9.88988 12.4644 9.84474 12.5908C9.7996 12.7172 9.77703 12.8526 9.77703 12.997Z" fill="white"/>
</g>
</svg>
