<svg width="32" height="32" viewBox="0 0 32 32" fill="none" xmlns="http://www.w3.org/2000/svg">
<mask id="mask0_705_71686" style="mask-type:alpha" maskUnits="userSpaceOnUse" x="0" y="0" width="32" height="32">
<rect width="32" height="32" fill="#D9D9D9"/>
</mask>
<g mask="url(#mask0_705_71686)">
<path d="M8.00065 16.0667C8.00065 16.4222 8.02287 16.7722 8.06732 17.1167C8.11176 17.4611 8.18954 17.8 8.30065 18.1334C8.41176 18.5111 8.40065 18.8722 8.26732 19.2167C8.13398 19.5611 7.90065 19.8111 7.56732 19.9667C7.21176 20.1445 6.86176 20.1611 6.51732 20.0167C6.17287 19.8722 5.9451 19.6111 5.83398 19.2334C5.65621 18.7222 5.52843 18.2 5.45065 17.6667C5.37287 17.1334 5.33398 16.6 5.33398 16.0667C5.33398 13.0889 6.36732 10.5556 8.43398 8.46669C10.5007 6.3778 13.0229 5.33336 16.0007 5.33336H16.234L15.034 4.13336C14.7895 3.88891 14.6673 3.5778 14.6673 3.20002C14.6673 2.82225 14.7895 2.51114 15.034 2.26669C15.2784 2.02225 15.5895 1.90002 15.9673 1.90002C16.3451 1.90002 16.6562 2.02225 16.9007 2.26669L20.3673 5.73336C20.634 6.00002 20.7673 6.31114 20.7673 6.66669C20.7673 7.02225 20.634 7.33336 20.3673 7.60002L16.9007 11.0667C16.6562 11.3111 16.3451 11.4334 15.9673 11.4334C15.5895 11.4334 15.2784 11.3111 15.034 11.0667C14.7895 10.8222 14.6673 10.5111 14.6673 10.1334C14.6673 9.75558 14.7895 9.44447 15.034 9.20002L16.234 8.00002H16.0007C13.7784 8.00002 11.8895 8.78336 10.334 10.35C8.77843 11.9167 8.00065 13.8222 8.00065 16.0667ZM24.0007 15.9334C24.0007 15.5778 23.9784 15.2278 23.934 14.8834C23.8895 14.5389 23.8118 14.2 23.7007 13.8667C23.5895 13.4889 23.6007 13.1278 23.734 12.7834C23.8673 12.4389 24.1007 12.1889 24.434 12.0334C24.7895 11.8556 25.1395 11.8389 25.484 11.9834C25.8284 12.1278 26.0562 12.3889 26.1673 12.7667C26.3451 13.2778 26.4729 13.8 26.5507 14.3334C26.6284 14.8667 26.6673 15.4 26.6673 15.9334C26.6673 18.9111 25.634 21.4445 23.5673 23.5334C21.5007 25.6222 18.9784 26.6667 16.0007 26.6667H15.7673L16.9673 27.8667C17.2118 28.1111 17.334 28.4222 17.334 28.8C17.334 29.1778 17.2118 29.4889 16.9673 29.7334C16.7229 29.9778 16.4118 30.1 16.034 30.1C15.6562 30.1 15.3451 29.9778 15.1007 29.7334L11.634 26.2667C11.3673 26 11.234 25.6889 11.234 25.3334C11.234 24.9778 11.3673 24.6667 11.634 24.4L15.1007 20.9334C15.3451 20.6889 15.6562 20.5667 16.034 20.5667C16.4118 20.5667 16.7229 20.6889 16.9673 20.9334C17.2118 21.1778 17.334 21.4889 17.334 21.8667C17.334 22.2445 17.2118 22.5556 16.9673 22.8L15.7673 24H16.0007C18.2229 24 20.1118 23.2167 21.6673 21.65C23.2229 20.0834 24.0007 18.1778 24.0007 15.9334Z" fill="white"/>
</g>
</svg>
