<svg width="32" height="32" viewBox="0 0 32 32" fill="none" xmlns="http://www.w3.org/2000/svg">
<mask id="mask0_705_71678" style="mask-type:alpha" maskUnits="userSpaceOnUse" x="0" y="0" width="32" height="32">
<rect width="32" height="32" fill="#D9D9D9"/>
</mask>
<g mask="url(#mask0_705_71678)">
<path d="M9.86717 23C8.93384 23.7778 7.96161 24.1333 6.9505 24.0667C5.93939 24 5.05606 23.6556 4.3005 23.0333C3.54495 22.4111 3.02828 21.5944 2.7505 20.5833C2.47272 19.5722 2.65606 18.5333 3.3005 17.4667L5.8005 13.3333C5.24495 12.8444 4.80606 12.2556 4.48384 11.5667C4.16161 10.8778 4.0005 10.1333 4.0005 9.33333C4.0005 7.86667 4.52272 6.61111 5.56717 5.56667C6.61161 4.52222 7.86717 4 9.33384 4C10.8005 4 12.0561 4.52222 13.1005 5.56667C14.1449 6.61111 14.6672 7.86667 14.6672 9.33333C14.6672 10.8 14.1449 12.0556 13.1005 13.1C12.0561 14.1444 10.8005 14.6667 9.33384 14.6667C9.13384 14.6667 8.93384 14.6556 8.73384 14.6333C8.53384 14.6111 8.34495 14.5778 8.16717 14.5333L5.6005 18.8667C5.35606 19.2667 5.27828 19.6611 5.36717 20.05C5.45606 20.4389 5.64495 20.7556 5.93384 21C6.22272 21.2444 6.56717 21.3833 6.96717 21.4167C7.36717 21.45 7.75606 21.3111 8.13384 21L22.1338 8.96667C23.0672 8.18889 24.045 7.83889 25.0672 7.91667C26.0894 7.99444 26.9783 8.34444 27.7338 8.96667C28.4894 9.58889 29.0005 10.4056 29.2672 11.4167C29.5338 12.4278 29.345 13.4667 28.7005 14.5333L26.2005 18.6667C26.7561 19.1556 27.195 19.7444 27.5172 20.4333C27.8394 21.1222 28.0005 21.8667 28.0005 22.6667C28.0005 24.1333 27.4783 25.3889 26.4338 26.4333C25.3894 27.4778 24.1338 28 22.6672 28C21.2005 28 19.9449 27.4778 18.9005 26.4333C17.8561 25.3889 17.3338 24.1333 17.3338 22.6667C17.3338 21.2 17.8561 19.9444 18.9005 18.9C19.9449 17.8556 21.2005 17.3333 22.6672 17.3333C22.8672 17.3333 23.0616 17.3444 23.2505 17.3667C23.4394 17.3889 23.6227 17.4222 23.8005 17.4667L26.4005 13.1333C26.645 12.7333 26.7227 12.3389 26.6338 11.95C26.5449 11.5611 26.3561 11.2444 26.0672 11C25.7783 10.7556 25.4338 10.6167 25.0338 10.5833C24.6338 10.55 24.2449 10.6889 23.8672 11L9.86717 23ZM9.33384 12C10.0672 12 10.6949 11.7389 11.2172 11.2167C11.7394 10.6944 12.0005 10.0667 12.0005 9.33333C12.0005 8.6 11.7394 7.97222 11.2172 7.45C10.6949 6.92778 10.0672 6.66667 9.33384 6.66667C8.6005 6.66667 7.97272 6.92778 7.4505 7.45C6.92828 7.97222 6.66717 8.6 6.66717 9.33333C6.66717 10.0667 6.92828 10.6944 7.4505 11.2167C7.97272 11.7389 8.6005 12 9.33384 12ZM22.6672 25.3333C23.4005 25.3333 24.0283 25.0722 24.5505 24.55C25.0727 24.0278 25.3338 23.4 25.3338 22.6667C25.3338 21.9333 25.0727 21.3056 24.5505 20.7833C24.0283 20.2611 23.4005 20 22.6672 20C21.9338 20 21.3061 20.2611 20.7838 20.7833C20.2616 21.3056 20.0005 21.9333 20.0005 22.6667C20.0005 23.4 20.2616 24.0278 20.7838 24.55C21.3061 25.0722 21.9338 25.3333 22.6672 25.3333Z" fill="white"/>
</g>
</svg>
