<svg width="32" height="32" viewBox="0 0 32 32" fill="none" xmlns="http://www.w3.org/2000/svg">
<mask id="mask0_705_105969" style="mask-type:alpha" maskUnits="userSpaceOnUse" x="0" y="0" width="32" height="32">
<rect width="32" height="32" fill="#D9D9D9"/>
</mask>
<g mask="url(#mask0_705_105969)">
<path d="M8.00065 20.4333C8.31176 20.2777 8.63398 20.1666 8.96732 20.1C9.30065 20.0333 9.6451 20 10.0007 20H10.6673V5.33329H10.0007C9.4451 5.33329 8.97287 5.52774 8.58398 5.91663C8.1951 6.30551 8.00065 6.77774 8.00065 7.33329V20.4333ZM13.334 20H24.0007V5.33329H13.334V20ZM10.0007 29.3333C8.71176 29.3333 7.61176 28.8777 6.70065 27.9666C5.78954 27.0555 5.33398 25.9555 5.33398 24.6666V7.33329C5.33398 6.0444 5.78954 4.9444 6.70065 4.03329C7.61176 3.12218 8.71176 2.66663 10.0007 2.66663H24.0007C24.734 2.66663 25.3618 2.92774 25.884 3.44996C26.4062 3.97218 26.6673 4.59996 26.6673 5.33329V22.0333C26.6673 22.2111 26.5951 22.3722 26.4507 22.5166C26.3062 22.6611 26.0451 22.8222 25.6673 23C25.3562 23.1555 25.1118 23.3777 24.934 23.6666C24.7562 23.9555 24.6673 24.2888 24.6673 24.6666C24.6673 25.0444 24.7562 25.3833 24.934 25.6833C25.1118 25.9833 25.3562 26.2 25.6673 26.3333C25.9784 26.4666 26.2229 26.65 26.4007 26.8833C26.5784 27.1166 26.6673 27.3666 26.6673 27.6333V27.9666C26.6673 28.3444 26.5395 28.6666 26.284 28.9333C26.0284 29.2 25.7118 29.3333 25.334 29.3333H10.0007ZM10.0007 26.6666H22.434C22.3007 26.3555 22.1951 26.0388 22.1173 25.7166C22.0395 25.3944 22.0007 25.0444 22.0007 24.6666C22.0007 24.3111 22.034 23.9666 22.1007 23.6333C22.1673 23.3 22.2784 22.9777 22.434 22.6666H10.0007C9.42287 22.6666 8.9451 22.8611 8.56732 23.25C8.18954 23.6388 8.00065 24.1111 8.00065 24.6666C8.00065 25.2444 8.18954 25.7222 8.56732 26.1C8.9451 26.4777 9.42287 26.6666 10.0007 26.6666Z" fill="white"/>
</g>
</svg>
