<svg width="32" height="32" viewBox="0 0 32 32" fill="none" xmlns="http://www.w3.org/2000/svg">
<mask id="mask0_705_80256" style="mask-type:alpha" maskUnits="userSpaceOnUse" x="0" y="0" width="32" height="32">
<rect width="32" height="32" fill="#D9D9D9"/>
</mask>
<g mask="url(#mask0_705_80256)">
<path d="M15.6993 25.4333L21.2327 14.6333C21.3438 14.4111 21.3327 14.1944 21.1993 13.9833C21.066 13.7722 20.8771 13.6666 20.6327 13.6666H17.066V6.69996C17.066 6.52218 16.9827 6.41663 16.816 6.38329C16.6493 6.34996 16.5216 6.41107 16.4327 6.56663L10.8993 17.3666C10.7882 17.5888 10.7993 17.8055 10.9327 18.0166C11.066 18.2277 11.2549 18.3333 11.4993 18.3333H15.066V25.3C15.066 25.4777 15.1493 25.5833 15.316 25.6166C15.4827 25.65 15.6105 25.5888 15.6993 25.4333ZM15.9993 29.3333C14.1549 29.3333 12.4216 28.9833 10.7993 28.2833C9.17713 27.5833 7.76602 26.6333 6.56602 25.4333C5.36602 24.2333 4.41602 22.8222 3.71602 21.2C3.01602 19.5777 2.66602 17.8444 2.66602 16C2.66602 14.1555 3.01602 12.4222 3.71602 10.8C4.41602 9.17774 5.36602 7.76663 6.56602 6.56663C7.76602 5.36663 9.17713 4.41663 10.7993 3.71663C12.4216 3.01663 14.1549 2.66663 15.9993 2.66663C17.8438 2.66663 19.5771 3.01663 21.1993 3.71663C22.8216 4.41663 24.2327 5.36663 25.4327 6.56663C26.6327 7.76663 27.5827 9.17774 28.2827 10.8C28.9827 12.4222 29.3327 14.1555 29.3327 16C29.3327 17.8444 28.9827 19.5777 28.2827 21.2C27.5827 22.8222 26.6327 24.2333 25.4327 25.4333C24.2327 26.6333 22.8216 27.5833 21.1993 28.2833C19.5771 28.9833 17.8438 29.3333 15.9993 29.3333ZM15.9993 26.6666C18.9549 26.6666 21.4716 25.6277 23.5493 23.55C25.6271 21.4722 26.666 18.9555 26.666 16C26.666 13.0444 25.6271 10.5277 23.5493 8.44996C21.4716 6.37218 18.9549 5.33329 15.9993 5.33329C13.0438 5.33329 10.5271 6.37218 8.44935 8.44996C6.37157 10.5277 5.33268 13.0444 5.33268 16C5.33268 18.9555 6.37157 21.4722 8.44935 23.55C10.5271 25.6277 13.0438 26.6666 15.9993 26.6666Z" fill="white"/>
</g>
</svg>
