<svg width="20" height="20" viewBox="0 0 20 20" fill="none" xmlns="http://www.w3.org/2000/svg">
<mask id="mask0_705_4442" style="mask-type:alpha" maskUnits="userSpaceOnUse" x="0" y="0" width="20" height="20">
<rect width="20" height="20" fill="#D9D9D9"/>
</mask>
<g mask="url(#mask0_705_4442)">
<path d="M4.99999 15.0001L3.08332 16.9167C2.81943 17.1806 2.51735 17.2397 2.17707 17.0938C1.8368 16.948 1.66666 16.6876 1.66666 16.3126V3.33341C1.66666 2.87508 1.82985 2.48272 2.15624 2.15633C2.48263 1.82994 2.87499 1.66675 3.33332 1.66675H16.6667C17.125 1.66675 17.5174 1.82994 17.8437 2.15633C18.1701 2.48272 18.3333 2.87508 18.3333 3.33341V13.3334C18.3333 13.7917 18.1701 14.1841 17.8437 14.5105C17.5174 14.8369 17.125 15.0001 16.6667 15.0001H4.99999ZM4.29166 13.3334H16.6667V3.33341H3.33332V14.2709L4.29166 13.3334Z" fill="#146C8F"/>
</g>
</svg>
