<svg width="32" height="32" viewBox="0 0 32 32" fill="none" xmlns="http://www.w3.org/2000/svg">
<mask id="mask0_705_54423" style="mask-type:alpha" maskUnits="userSpaceOnUse" x="0" y="0" width="32" height="32">
<rect width="32" height="32" fill="#D9D9D9"/>
</mask>
<g mask="url(#mask0_705_54423)">
<path d="M6.53379 28L6.33379 26.3L6.06712 26.1666C5.97823 26.1222 5.85601 26.0444 5.70046 25.9333L4.10046 26.6L2.63379 24.0666L4.00046 23.0333V22.3333L2.63379 21.2666L4.10046 18.7333L5.70046 19.4C5.81157 19.3333 5.91712 19.2666 6.01712 19.2C6.11712 19.1333 6.22268 19.0777 6.33379 19.0333L6.53379 17.3333H9.46712L9.66712 19.0333L9.93379 19.1666C9.97823 19.1888 10.0338 19.2222 10.1005 19.2666L10.3005 19.4L11.9005 18.7333L13.3671 21.2666L12.0005 22.3V23.0333L19.3005 18.8L17.8005 21.4333L18.2005 21.7333L12.9338 24.8L11.9005 26.6L10.3005 25.9333C10.1893 26 10.0838 26.0666 9.98379 26.1333C9.88379 26.2 9.77823 26.2555 9.66712 26.3L9.46712 28H6.53379ZM8.00046 20.6666C7.4449 20.6666 6.97268 20.8611 6.58379 21.25C6.1949 21.6388 6.00046 22.1111 6.00046 22.6666C6.00046 23.2222 6.1949 23.6944 6.58379 24.0833C6.97268 24.4722 7.4449 24.6666 8.00046 24.6666C8.55601 24.6666 9.02823 24.4722 9.41712 24.0833C9.80601 23.6944 10.0005 23.2222 10.0005 22.6666C10.0005 22.1111 9.80601 21.6388 9.41712 21.25C9.02823 20.8611 8.55601 20.6666 8.00046 20.6666ZM13.2005 13.3333L13.0005 11.6333C12.956 11.5888 12.9005 11.5555 12.8338 11.5333C12.7671 11.5111 12.7116 11.4777 12.6671 11.4333V18.7666L12.1671 17.9L10.6671 18.5333V11.7333L9.33379 9.39996L10.6671 8.36663V7.66663L9.30046 6.59996L10.7671 4.06663L12.3671 4.73329C12.4782 4.66663 12.5838 4.59996 12.6838 4.53329C12.7838 4.46663 12.8893 4.41107 13.0005 4.36663L13.2005 2.66663H16.1338L16.3338 4.36663L16.6005 4.49996C16.6893 4.5444 16.8116 4.62218 16.9671 4.73329L18.5671 4.06663L20.0338 6.59996L18.6671 7.63329V8.33329L20.0338 9.39996L18.5671 11.9333L16.9671 11.2666C16.856 11.3333 16.7505 11.4 16.6505 11.4666C16.5505 11.5333 16.4449 11.5888 16.3338 11.6333L16.1338 13.3333H13.2005ZM14.6671 5.99996C14.1116 5.99996 13.6393 6.1944 13.2505 6.58329C12.8616 6.97218 12.6671 7.4444 12.6671 7.99996C12.6671 8.55551 12.8616 9.02774 13.2505 9.41663C13.6393 9.80552 14.1116 9.99996 14.6671 9.99996C15.2227 9.99996 15.6949 9.80552 16.0838 9.41663C16.4727 9.02774 16.6671 8.55551 16.6671 7.99996C16.6671 7.4444 16.4727 6.97218 16.0838 6.58329C15.6949 6.1944 15.2227 5.99996 14.6671 5.99996ZM22.5338 28L22.3338 26.3L22.0671 26.1666C21.9782 26.1222 21.856 26.0444 21.7005 25.9333L20.1005 26.6L18.6338 24.0666L20.0005 23.0333V22.3333L18.6338 21.3L20.1005 18.7333L21.7005 19.4C21.7671 19.3555 21.8116 19.3277 21.8338 19.3166L22.3338 19.0666L15.1338 14H16.7338L16.8671 12.8L23.3671 17.3333H25.4671L25.6671 19.0333L25.9338 19.1666C25.9782 19.1888 26.0338 19.2222 26.1005 19.2666L26.3005 19.4L27.9005 18.7333L29.3671 21.2666L28.0005 22.3V23L29.3671 24.0666L27.9005 26.6L26.3005 25.9333C26.1893 26 26.0838 26.0666 25.9838 26.1333C25.8838 26.2 25.7782 26.2555 25.6671 26.3L25.4671 28H22.5338ZM24.0005 20.6666C23.4449 20.6666 22.9727 20.8611 22.5838 21.25C22.1949 21.6388 22.0005 22.1111 22.0005 22.6666C22.0005 23.2222 22.1949 23.6944 22.5838 24.0833C22.9727 24.4722 23.4449 24.6666 24.0005 24.6666C24.556 24.6666 25.0282 24.4722 25.4171 24.0833C25.806 23.6944 26.0005 23.2222 26.0005 22.6666C26.0005 22.1111 25.806 21.6388 25.4171 21.25C25.0282 20.8611 24.556 20.6666 24.0005 20.6666Z" fill="white"/>
</g>
</svg>
