<svg width="32" height="32" viewBox="0 0 32 32" fill="none" xmlns="http://www.w3.org/2000/svg">
<mask id="mask0_639_194587" style="mask-type:alpha" maskUnits="userSpaceOnUse" x="0" y="0" width="32" height="32">
<rect width="32" height="32" fill="#D9D9D9"/>
</mask>
<g mask="url(#mask0_639_194587)">
<path d="M23.8003 26.5999L17.9003 20.6999L20.7003 17.8999L26.6003 23.7999C26.9781 24.1777 27.167 24.6443 27.167 25.1999C27.167 25.7554 26.9781 26.2221 26.6003 26.5999C26.2225 26.9777 25.7558 27.1666 25.2003 27.1666C24.6447 27.1666 24.1781 26.9777 23.8003 26.5999ZM5.40029 26.5999C5.02251 26.2221 4.83362 25.7554 4.83362 25.1999C4.83362 24.6443 5.02251 24.1777 5.40029 23.7999L13.2003 15.9999L10.9336 13.7332C10.6892 13.9777 10.3781 14.0999 10.0003 14.0999C9.62251 14.0999 9.3114 13.9777 9.06696 13.7332L8.30029 12.9666V15.9666C8.30029 16.2777 8.16696 16.4888 7.90029 16.5999C7.63362 16.711 7.38918 16.6554 7.16696 16.4332L3.53362 12.7999C3.3114 12.5777 3.25585 12.3332 3.36696 12.0666C3.47807 11.7999 3.68918 11.6666 4.00029 11.6666H7.00029L6.26696 10.9332C6.00029 10.6666 5.86696 10.3554 5.86696 9.99989C5.86696 9.64433 6.00029 9.33322 6.26696 9.06655L10.067 5.26655C10.5114 4.82211 10.9892 4.49989 11.5003 4.29989C12.0114 4.09989 12.5336 3.99989 13.067 3.99989C13.5114 3.99989 13.9281 4.06655 14.317 4.19989C14.7058 4.33322 15.0892 4.53322 15.467 4.79989C15.6447 4.911 15.7392 5.06655 15.7503 5.26655C15.7614 5.46655 15.6892 5.64433 15.5336 5.79989L13.0003 8.33322L13.7336 9.06655C13.9781 9.311 14.1003 9.62211 14.1003 9.99989C14.1003 10.3777 13.9781 10.6888 13.7336 10.9332L16.0003 13.1999L19.0003 10.1999C18.9114 9.95544 18.8392 9.69989 18.7836 9.43322C18.7281 9.16655 18.7003 8.89989 18.7003 8.63322C18.7003 7.32211 19.1503 6.21655 20.0503 5.31655C20.9503 4.41655 22.0558 3.96655 23.367 3.96655C23.5447 3.96655 23.7114 3.97211 23.867 3.98322C24.0225 3.99433 24.1781 4.02211 24.3336 4.06655C24.5336 4.13322 24.6614 4.27211 24.717 4.48322C24.7725 4.69433 24.7225 4.87766 24.567 5.03322L22.4003 7.19989C22.267 7.33322 22.2003 7.48878 22.2003 7.66655C22.2003 7.84433 22.267 7.99989 22.4003 8.13322L23.867 9.59989C24.0003 9.73322 24.1558 9.79989 24.3336 9.79989C24.5114 9.79989 24.667 9.73322 24.8003 9.59989L26.967 7.43322C27.1225 7.27766 27.3058 7.22211 27.517 7.26655C27.7281 7.311 27.867 7.44433 27.9336 7.66655C27.9781 7.82211 28.0058 7.97766 28.017 8.13322C28.0281 8.28878 28.0336 8.45544 28.0336 8.63322C28.0336 9.94433 27.5836 11.0499 26.6836 11.9499C25.7836 12.8499 24.6781 13.2999 23.367 13.2999C23.1003 13.2999 22.8336 13.2777 22.567 13.2332C22.3003 13.1888 22.0447 13.111 21.8003 12.9999L8.20029 26.5999C7.82251 26.9777 7.35585 27.1666 6.80029 27.1666C6.24474 27.1666 5.77807 26.9777 5.40029 26.5999Z" fill="white"/>
</g>
</svg>
