<svg width="24" height="24" viewBox="0 0 24 24" fill="none" xmlns="http://www.w3.org/2000/svg">
<mask id="mask0_705_111200" style="mask-type:alpha" maskUnits="userSpaceOnUse" x="0" y="0" width="24" height="24">
<rect width="24" height="24" fill="#D9D9D9"/>
</mask>
<g mask="url(#mask0_705_111200)">
<path d="M12 19.3504C14.0333 17.4837 15.5417 15.7879 16.525 14.2629C17.5083 12.7379 18 11.3837 18 10.2004C18 8.3837 17.4208 6.8962 16.2625 5.73787C15.1042 4.57953 13.6833 4.00037 12 4.00037C10.3167 4.00037 8.89583 4.57953 7.7375 5.73787C6.57917 6.8962 6 8.3837 6 10.2004C6 11.3837 6.49167 12.7379 7.475 14.2629C8.45833 15.7879 9.96667 17.4837 12 19.3504ZM12 21.3254C11.7667 21.3254 11.5333 21.2837 11.3 21.2004C11.0667 21.117 10.8583 20.992 10.675 20.8254C9.59167 19.8254 8.63333 18.8504 7.8 17.9004C6.96667 16.9504 6.27083 16.0295 5.7125 15.1379C5.15417 14.2462 4.72917 13.3879 4.4375 12.5629C4.14583 11.7379 4 10.9504 4 10.2004C4 7.70037 4.80417 5.7087 6.4125 4.22537C8.02083 2.74203 9.88333 2.00037 12 2.00037C14.1167 2.00037 15.9792 2.74203 17.5875 4.22537C19.1958 5.7087 20 7.70037 20 10.2004C20 10.9504 19.8542 11.7379 19.5625 12.5629C19.2708 13.3879 18.8458 14.2462 18.2875 15.1379C17.7292 16.0295 17.0333 16.9504 16.2 17.9004C15.3667 18.8504 14.4083 19.8254 13.325 20.8254C13.1417 20.992 12.9333 21.117 12.7 21.2004C12.4667 21.2837 12.2333 21.3254 12 21.3254ZM12 12.0004C12.55 12.0004 13.0208 11.8045 13.4125 11.4129C13.8042 11.0212 14 10.5504 14 10.0004C14 9.45037 13.8042 8.97953 13.4125 8.58787C13.0208 8.1962 12.55 8.00037 12 8.00037C11.45 8.00037 10.9792 8.1962 10.5875 8.58787C10.1958 8.97953 10 9.45037 10 10.0004C10 10.5504 10.1958 11.0212 10.5875 11.4129C10.9792 11.8045 11.45 12.0004 12 12.0004Z" fill="#146C8F"/>
</g>
</svg>
