<svg width="32" height="32" viewBox="0 0 32 32" fill="none" xmlns="http://www.w3.org/2000/svg">
<mask id="mask0_705_63083" style="mask-type:alpha" maskUnits="userSpaceOnUse" x="0" y="0" width="32" height="32">
<rect width="32" height="32" fill="#D9D9D9"/>
</mask>
<g mask="url(#mask0_705_63083)">
<path d="M16.0007 29.3334C14.1562 29.3334 12.584 28.6834 11.284 27.3834C9.98398 26.0834 9.33398 24.5112 9.33398 22.6667C9.33398 21.6001 9.56732 20.6056 10.034 19.6834C10.5007 18.7612 11.1562 17.9779 12.0007 17.3334V6.66675C12.0007 5.55564 12.3895 4.61119 13.1673 3.83341C13.9451 3.05564 14.8895 2.66675 16.0007 2.66675C17.1118 2.66675 18.0562 3.05564 18.834 3.83341C19.6118 4.61119 20.0007 5.55564 20.0007 6.66675V17.3334C20.8451 17.9779 21.5007 18.7612 21.9673 19.6834C22.434 20.6056 22.6673 21.6001 22.6673 22.6667C22.6673 24.5112 22.0173 26.0834 20.7173 27.3834C19.4173 28.6834 17.8451 29.3334 16.0007 29.3334ZM14.6673 14.6667H17.334V13.3334H16.0007V12.0001H17.334V9.33341H16.0007V8.00008H17.334V6.66675C17.334 6.28897 17.2062 5.9723 16.9507 5.71675C16.6951 5.46119 16.3784 5.33341 16.0007 5.33341C15.6229 5.33341 15.3062 5.46119 15.0507 5.71675C14.7951 5.9723 14.6673 6.28897 14.6673 6.66675V14.6667Z" fill="white"/>
</g>
</svg>
