<svg width="32" height="32" viewBox="0 0 32 32" fill="none" xmlns="http://www.w3.org/2000/svg">
<mask id="mask0_705_54431" style="mask-type:alpha" maskUnits="userSpaceOnUse" x="0" y="0" width="32" height="32">
<rect width="32" height="32" fill="#D9D9D9"/>
</mask>
<g mask="url(#mask0_705_54431)">
<path d="M16 7.33333C16.8667 6.28889 17.9333 5.47222 19.2 4.88333C20.4667 4.29444 21.8 4 23.2 4C25.6444 4 27.7222 4.85556 29.4333 6.56667C31.1444 8.27778 32 10.3556 32 12.8C32 13.2222 31.9722 13.6389 31.9167 14.05C31.8611 14.4611 31.7778 14.8667 31.6667 15.2667C31.5556 15.6444 31.3444 15.9444 31.0333 16.1667C30.7222 16.3889 30.3778 16.4444 30 16.3333C29.6444 16.2444 29.3722 16.0444 29.1833 15.7333C28.9944 15.4222 28.9556 15.0889 29.0667 14.7333C29.1556 14.4222 29.2222 14.1056 29.2667 13.7833C29.3111 13.4611 29.3333 13.1333 29.3333 12.8C29.3333 11.0889 28.7389 9.63889 27.55 8.45C26.3611 7.26111 24.9111 6.66667 23.2 6.66667C21.9778 6.66667 20.8667 7.00556 19.8667 7.68333C18.8667 8.36111 17.9667 9.16667 17.1667 10.1C16.8556 10.4778 16.4667 10.6667 16 10.6667C15.5333 10.6667 15.1444 10.4778 14.8333 10.1C14.0556 9.16667 13.1611 8.36111 12.15 7.68333C11.1389 7.00556 10.0222 6.66667 8.8 6.66667C7.08889 6.66667 5.63889 7.26111 4.45 8.45C3.26111 9.63889 2.66667 11.0889 2.66667 12.8C2.66667 13.1333 2.68889 13.4611 2.73333 13.7833C2.77778 14.1056 2.84444 14.4222 2.93333 14.7333C3.02222 15.0667 2.97222 15.3833 2.78333 15.6833C2.59444 15.9833 2.33333 16.1778 2 16.2667C1.62222 16.3778 1.27778 16.3333 0.966667 16.1333C0.655556 15.9333 0.444444 15.6444 0.333333 15.2667C0.222222 14.8667 0.138889 14.4611 0.0833333 14.05C0.0277778 13.6389 0 13.2222 0 12.8C0 10.3556 0.855556 8.27778 2.56667 6.56667C4.27778 4.85556 6.35556 4 8.8 4C10.2 4 11.5333 4.29444 12.8 4.88333C14.0667 5.47222 15.1333 6.28889 16 7.33333ZM1.33333 29.3333C0.955556 29.3333 0.638889 29.2056 0.383333 28.95C0.127778 28.6944 0 28.3778 0 28V27.2333C0 26.5444 0.255556 25.9444 0.766667 25.4333C1.27778 24.9222 1.97778 24.5444 2.86667 24.3C3.44444 24.1222 3.96667 24.0222 4.43333 24C4.9 23.9778 5.4 23.9889 5.93333 24.0333C6.15556 24.0556 6.31667 24.1611 6.41667 24.35C6.51667 24.5389 6.52222 24.7333 6.43333 24.9333C6.27778 25.2889 6.16667 25.65 6.1 26.0167C6.03333 26.3833 6 26.7667 6 27.1667V28C6 28.3778 5.87222 28.6944 5.61667 28.95C5.36111 29.2056 5.04444 29.3333 4.66667 29.3333H1.33333ZM8 28V27.1667C8 25.7222 8.73889 24.5556 10.2167 23.6667C11.6944 22.7778 13.6222 22.3333 16 22.3333C18.4 22.3333 20.3333 22.7778 21.8 23.6667C23.2667 24.5556 24 25.7222 24 27.1667V28C24 28.3778 23.8722 28.6944 23.6167 28.95C23.3611 29.2056 23.0444 29.3333 22.6667 29.3333H9.33333C8.95556 29.3333 8.63889 29.2056 8.38333 28.95C8.12778 28.6944 8 28.3778 8 28ZM27.3333 29.3333C26.9556 29.3333 26.6389 29.2056 26.3833 28.95C26.1278 28.6944 26 28.3778 26 28V27.1667C26 26.7667 25.9667 26.3833 25.9 26.0167C25.8333 25.65 25.7222 25.2889 25.5667 24.9333C25.4778 24.7333 25.4833 24.5389 25.5833 24.35C25.6833 24.1611 25.8444 24.0556 26.0667 24.0333C26.6 23.9889 27.1 23.9778 27.5667 24C28.0333 24.0222 28.5556 24.1222 29.1333 24.3C30.0222 24.5444 30.7222 24.9222 31.2333 25.4333C31.7444 25.9444 32 26.5444 32 27.2333V28C32 28.3778 31.8722 28.6944 31.6167 28.95C31.3611 29.2056 31.0444 29.3333 30.6667 29.3333H27.3333ZM16 25C14.7333 25 13.6 25.1667 12.6 25.5C11.6 25.8333 11.0111 26.2222 10.8333 26.6667H21.2C21 26.2222 20.4056 25.8333 19.4167 25.5C18.4278 25.1667 17.2889 25 16 25ZM5.33333 22.6667C4.6 22.6667 3.97222 22.4056 3.45 21.8833C2.92778 21.3611 2.66667 20.7333 2.66667 20C2.66667 19.2444 2.92778 18.6111 3.45 18.1C3.97222 17.5889 4.6 17.3333 5.33333 17.3333C6.08889 17.3333 6.72222 17.5889 7.23333 18.1C7.74444 18.6111 8 19.2444 8 20C8 20.7333 7.74444 21.3611 7.23333 21.8833C6.72222 22.4056 6.08889 22.6667 5.33333 22.6667ZM26.6667 22.6667C25.9333 22.6667 25.3056 22.4056 24.7833 21.8833C24.2611 21.3611 24 20.7333 24 20C24 19.2444 24.2611 18.6111 24.7833 18.1C25.3056 17.5889 25.9333 17.3333 26.6667 17.3333C27.4222 17.3333 28.0556 17.5889 28.5667 18.1C29.0778 18.6111 29.3333 19.2444 29.3333 20C29.3333 20.7333 29.0778 21.3611 28.5667 21.8833C28.0556 22.4056 27.4222 22.6667 26.6667 22.6667ZM16 21.3333C14.8889 21.3333 13.9444 20.9444 13.1667 20.1667C12.3889 19.3889 12 18.4444 12 17.3333C12 16.2 12.3889 15.25 13.1667 14.4833C13.9444 13.7167 14.8889 13.3333 16 13.3333C17.1333 13.3333 18.0833 13.7167 18.85 14.4833C19.6167 15.25 20 16.2 20 17.3333C20 18.4444 19.6167 19.3889 18.85 20.1667C18.0833 20.9444 17.1333 21.3333 16 21.3333ZM16 16C15.6222 16 15.3056 16.1278 15.05 16.3833C14.7944 16.6389 14.6667 16.9556 14.6667 17.3333C14.6667 17.7111 14.7944 18.0278 15.05 18.2833C15.3056 18.5389 15.6222 18.6667 16 18.6667C16.3778 18.6667 16.6944 18.5389 16.95 18.2833C17.2056 18.0278 17.3333 17.7111 17.3333 17.3333C17.3333 16.9556 17.2056 16.6389 16.95 16.3833C16.6944 16.1278 16.3778 16 16 16Z" fill="white"/>
</g>
</svg>
