<svg width="32" height="32" viewBox="0 0 32 32" fill="none" xmlns="http://www.w3.org/2000/svg">
<mask id="mask0_639_194569" style="mask-type:alpha" maskUnits="userSpaceOnUse" x="0" y="0" width="32" height="32">
<rect width="32" height="32" fill="#D9D9D9"/>
</mask>
<g mask="url(#mask0_639_194569)">
<path d="M13.7 16C13.0778 16 12.5667 15.7667 12.1667 15.3C11.7667 14.8333 11.6222 14.2889 11.7333 13.6667L12.1333 11.2667C12.3111 10.3111 12.7611 9.52778 13.4833 8.91667C14.2056 8.30556 15.0444 8 16 8C16.9778 8 17.8278 8.30556 18.55 8.91667C19.2722 9.52778 19.7222 10.3111 19.9 11.2667L20.3 13.6667C20.4111 14.2889 20.2667 14.8333 19.8667 15.3C19.4667 15.7667 18.9556 16 18.3333 16H13.7ZM14.5 13.3333H17.5333L17.2667 11.7C17.2222 11.3889 17.0778 11.1389 16.8333 10.95C16.5889 10.7611 16.3111 10.6667 16 10.6667C15.6889 10.6667 15.4167 10.7611 15.1833 10.95C14.95 11.1389 14.8111 11.3889 14.7667 11.7L14.5 13.3333ZM4.13333 17.3C3.62222 17.3222 3.18333 17.2222 2.81667 17C2.45 16.7778 2.21111 16.4333 2.1 15.9667C2.05556 15.7667 2.04444 15.5667 2.06667 15.3667C2.08889 15.1667 2.14444 14.9778 2.23333 14.8C2.23333 14.8222 2.22222 14.7778 2.2 14.6667C2.15556 14.6222 2.04444 14.3556 1.86667 13.8667C1.82222 13.6 1.85556 13.3444 1.96667 13.1C2.07778 12.8556 2.22222 12.6444 2.4 12.4667L2.46667 12.4C2.51111 11.9778 2.68333 11.6222 2.98333 11.3333C3.28333 11.0444 3.65556 10.9 4.1 10.9C4.16667 10.9 4.37778 10.9444 4.73333 11.0333L4.83333 11C4.94444 10.8889 5.08889 10.8056 5.26667 10.75C5.44444 10.6944 5.63333 10.6667 5.83333 10.6667C6.07778 10.6667 6.29445 10.7056 6.48333 10.7833C6.67222 10.8611 6.82222 10.9778 6.93333 11.1333C6.95556 11.1333 6.97222 11.1389 6.98333 11.15C6.99444 11.1611 7.01111 11.1667 7.03333 11.1667C7.34444 11.1889 7.61667 11.2833 7.85 11.45C8.08333 11.6167 8.25556 11.8444 8.36667 12.1333C8.41111 12.2889 8.42778 12.4389 8.41667 12.5833C8.40556 12.7278 8.37778 12.8667 8.33333 13C8.33333 13.0222 8.34445 13.0667 8.36667 13.1333C8.52222 13.2889 8.64445 13.4611 8.73333 13.65C8.82222 13.8389 8.86667 14.0333 8.86667 14.2333C8.86667 14.3222 8.8 14.5556 8.66667 14.9333C8.64444 14.9778 8.64444 15.0222 8.66667 15.0667L8.73333 15.6C8.73333 16.0667 8.53889 16.4667 8.15 16.8C7.76111 17.1333 7.28889 17.3 6.73333 17.3H4.13333ZM26.6667 17.3333C25.9333 17.3333 25.3056 17.0722 24.7833 16.55C24.2611 16.0278 24 15.4 24 14.6667C24 14.4 24.0389 14.15 24.1167 13.9167C24.1944 13.6833 24.3 13.4556 24.4333 13.2333L23.5 12.4C23.2778 12.2222 23.2389 12 23.3833 11.7333C23.5278 11.4667 23.7333 11.3333 24 11.3333H26.6667C27.4 11.3333 28.0278 11.5944 28.55 12.1167C29.0722 12.6389 29.3333 13.2667 29.3333 14V14.6667C29.3333 15.4 29.0722 16.0278 28.55 16.55C28.0278 17.0722 27.4 17.3333 26.6667 17.3333ZM0 22.6667V21.9C0 20.9222 0.494445 20.1389 1.48333 19.55C2.47222 18.9611 3.75556 18.6667 5.33333 18.6667C5.62222 18.6667 5.9 18.6722 6.16667 18.6833C6.43333 18.6944 6.68889 18.7222 6.93333 18.7667C6.62222 19.2111 6.38889 19.6889 6.23333 20.2C6.07778 20.7111 6 21.2556 6 21.8333V24H1.33333C0.955556 24 0.638889 23.8722 0.383333 23.6167C0.127778 23.3611 0 23.0444 0 22.6667ZM8 22.6667V21.8333C8 20.3889 8.73889 19.2222 10.2167 18.3333C11.6944 17.4444 13.6222 17 16 17C18.4 17 20.3333 17.4444 21.8 18.3333C23.2667 19.2222 24 20.3889 24 21.8333V22.6667C24 23.0444 23.8722 23.3611 23.6167 23.6167C23.3611 23.8722 23.0444 24 22.6667 24H9.33333C8.95556 24 8.63889 23.8722 8.38333 23.6167C8.12778 23.3611 8 23.0444 8 22.6667ZM26.6667 18.6667C28.2667 18.6667 29.5556 18.9611 30.5333 19.55C31.5111 20.1389 32 20.9222 32 21.9V22.6667C32 23.0444 31.8722 23.3611 31.6167 23.6167C31.3611 23.8722 31.0444 24 30.6667 24H26V21.8333C26 21.2556 25.9278 20.7111 25.7833 20.2C25.6389 19.6889 25.4222 19.2111 25.1333 18.7667C25.3778 18.7222 25.6278 18.6944 25.8833 18.6833C26.1389 18.6722 26.4 18.6667 26.6667 18.6667ZM16 19.6667C14.7333 19.6667 13.6 19.8333 12.6 20.1667C11.6 20.5 11.0111 20.8889 10.8333 21.3333H21.2C21 20.8889 20.4056 20.5 19.4167 20.1667C18.4278 19.8333 17.2889 19.6667 16 19.6667Z" fill="white"/>
</g>
</svg>
