<svg width="32" height="32" viewBox="0 0 32 32" fill="none" xmlns="http://www.w3.org/2000/svg">
<mask id="mask0_705_105935" style="mask-type:alpha" maskUnits="userSpaceOnUse" x="0" y="0" width="32" height="32">
<rect width="32" height="32" fill="#D9D9D9"/>
</mask>
<g mask="url(#mask0_705_105935)">
<path d="M25.1327 29.3C24.9549 29.3 24.7882 29.2722 24.6327 29.2166C24.4771 29.1611 24.3327 29.0666 24.1993 28.9333L17.3993 22.1333C17.266 22 17.1716 21.8555 17.116 21.7C17.0605 21.5444 17.0327 21.3778 17.0327 21.2C17.0327 21.0222 17.0605 20.8555 17.116 20.7C17.1716 20.5444 17.266 20.4 17.3993 20.2666L20.2327 17.4333C20.366 17.3 20.5105 17.2055 20.666 17.15C20.8216 17.0944 20.9882 17.0666 21.166 17.0666C21.3438 17.0666 21.5105 17.0944 21.666 17.15C21.8216 17.2055 21.966 17.3 22.0993 17.4333L28.8993 24.2333C29.0327 24.3666 29.1271 24.5111 29.1827 24.6666C29.2382 24.8222 29.266 24.9889 29.266 25.1666C29.266 25.3444 29.2382 25.5111 29.1827 25.6666C29.1271 25.8222 29.0327 25.9666 28.8993 26.1L26.066 28.9333C25.9327 29.0666 25.7882 29.1611 25.6327 29.2166C25.4771 29.2722 25.3105 29.3 25.1327 29.3ZM25.1327 26.1333L26.0993 25.1666L21.1993 20.2666L20.2327 21.2333L25.1327 26.1333ZM6.83268 29.3333C6.6549 29.3333 6.48268 29.3 6.31602 29.2333C6.14935 29.1666 5.99935 29.0666 5.86602 28.9333L3.06602 26.1333C2.93268 26 2.83268 25.85 2.76602 25.6833C2.69935 25.5166 2.66602 25.3444 2.66602 25.1666C2.66602 24.9889 2.69935 24.8222 2.76602 24.6666C2.83268 24.5111 2.93268 24.3666 3.06602 24.2333L10.1327 17.1666H12.966L14.0993 16.0333L8.59935 10.5333H6.69935L2.66602 6.49998L6.43268 2.73331L10.466 6.76665V8.66665L15.966 14.1666L19.8327 10.3L18.3993 8.86665L20.266 6.99998H16.4993L15.566 6.06665L20.2993 1.33331L21.2327 2.26665V6.03331L23.0993 4.16665L27.8327 8.89998C28.2105 9.27776 28.4993 9.70554 28.6993 10.1833C28.8993 10.6611 28.9993 11.1666 28.9993 11.7C28.9993 12.2333 28.8993 12.7444 28.6993 13.2333C28.4993 13.7222 28.2105 14.1555 27.8327 14.5333L24.9993 11.7L23.1327 13.5666L21.7327 12.1666L14.8327 19.0666V21.8666L7.76602 28.9333C7.63268 29.0666 7.48824 29.1666 7.33268 29.2333C7.17713 29.3 7.01046 29.3333 6.83268 29.3333ZM6.83268 26.1333L12.4993 20.4666V19.5H11.5327L5.86602 25.1666L6.83268 26.1333ZM6.83268 26.1333L5.86602 25.1666L6.36602 25.6333L6.83268 26.1333Z" fill="white"/>
</g>
</svg>
