<svg width="32" height="32" viewBox="0 0 32 32" fill="none" xmlns="http://www.w3.org/2000/svg">
<mask id="mask0_705_45808" style="mask-type:alpha" maskUnits="userSpaceOnUse" x="0" y="0" width="32" height="32">
<rect width="32" height="32" fill="#D9D9D9"/>
</mask>
<g mask="url(#mask0_705_45808)">
<path d="M6.66667 28C5.93333 28 5.30556 27.7389 4.78333 27.2167C4.26111 26.6944 4 26.0667 4 25.3333V6.66667C4 5.93333 4.26111 5.30556 4.78333 4.78333C5.30556 4.26111 5.93333 4 6.66667 4H25.3333C26.0667 4 26.6944 4.26111 27.2167 4.78333C27.7389 5.30556 28 5.93333 28 6.66667V25.3333C28 26.0667 27.7389 26.6944 27.2167 27.2167C26.6944 27.7389 26.0667 28 25.3333 28H6.66667ZM6.66667 25.3333H25.3333V6.66667H6.66667V25.3333Z" fill="white"/>
<path d="M21.2693 19.3828H19.7497C18.4426 19.3828 17.3828 18.281 17.3828 16.9219C17.3828 15.5628 18.4426 14.4609 19.7497 14.4609H19.843C21.1464 14.4609 22.2046 15.5626 22.2047 16.9219H22.2027H17.3865" stroke="white" stroke-width="1.8" stroke-miterlimit="10"/>
<path d="M10 12V20.2031" stroke="white" stroke-width="1.8" stroke-miterlimit="10"/>
<path d="M14.1016 12V20.2031" stroke="white" stroke-width="1.8" stroke-miterlimit="10"/>
<path d="M10 16.1016H14.1016" stroke="white" stroke-width="1.8" stroke-miterlimit="10"/>
</g>
</svg>
