<svg width="32" height="33" viewBox="0 0 32 33" fill="none" xmlns="http://www.w3.org/2000/svg">
<rect y="0.5" width="32" height="32" rx="16" fill="url(#paint0_linear_639_194532)"/>
<path d="M13.337 16.5415C13.337 15.0675 14.5312 13.8722 16.0048 13.8722C17.4784 13.8722 18.6733 15.0675 18.6733 16.5415C18.6733 18.0155 17.4784 19.2107 16.0048 19.2107C14.5312 19.2107 13.337 18.0155 13.337 16.5415ZM11.8944 16.5415C11.8944 18.8123 13.7346 20.653 16.0048 20.653C18.275 20.653 20.1152 18.8123 20.1152 16.5415C20.1152 14.2707 18.275 12.4299 16.0048 12.4299C13.7346 12.4299 11.8944 14.2707 11.8944 16.5415ZM19.3173 12.2669C19.3172 12.4569 19.3735 12.6427 19.479 12.8008C19.5845 12.9588 19.7344 13.0821 19.9099 13.1549C20.0854 13.2277 20.2786 13.2468 20.4649 13.2098C20.6513 13.1728 20.8225 13.0813 20.9568 12.947C21.0912 12.8127 21.1828 12.6415 21.2199 12.4551C21.2571 12.2687 21.2381 12.0755 21.1655 11.8999C21.0929 11.7243 20.9698 11.5742 20.8119 11.4686C20.654 11.3629 20.4683 11.3065 20.2783 11.3064H20.2779C20.0232 11.3066 19.779 11.4078 19.5989 11.5879C19.4188 11.7679 19.3175 12.0122 19.3173 12.2669ZM12.7709 23.0591C11.9904 23.0235 11.5662 22.8935 11.2843 22.7836C10.9106 22.6381 10.644 22.4648 10.3636 22.1847C10.0832 21.9046 9.90969 21.6382 9.76483 21.2643C9.65494 20.9825 9.52495 20.558 9.48947 19.7774C9.45066 18.9334 9.44291 18.6798 9.44291 16.5415C9.44291 14.4033 9.4513 14.1504 9.48947 13.3057C9.52501 12.5251 9.65597 12.1014 9.76483 11.8188C9.91033 11.4449 10.0836 11.1782 10.3636 10.8978C10.6436 10.6173 10.91 10.4437 11.2843 10.2988C11.5661 10.1889 11.9904 10.0589 12.7709 10.0234C13.6146 9.98456 13.8681 9.97681 16.0048 9.97681C18.1415 9.97681 18.3952 9.9852 19.2397 10.0234C20.0201 10.0589 20.4436 10.1899 20.7262 10.2988C21.1 10.4437 21.3666 10.6177 21.647 10.8978C21.9273 11.1778 22.1002 11.4449 22.2457 11.8188C22.3556 12.1006 22.4856 12.5251 22.5211 13.3057C22.5599 14.1504 22.5676 14.4033 22.5676 16.5415C22.5676 18.6798 22.5599 18.9327 22.5211 19.7774C22.4856 20.558 22.3549 20.9824 22.2457 21.2643C22.1002 21.6382 21.9269 21.9049 21.647 22.1847C21.367 22.4645 21.1 22.6381 20.7262 22.7836C20.4445 22.8936 20.0201 23.0236 19.2397 23.0591C18.3959 23.0979 18.1425 23.1057 16.0048 23.1057C13.8671 23.1057 13.6144 23.0979 12.7709 23.0591ZM12.7046 8.58287C11.8524 8.62168 11.2701 8.75684 10.7616 8.95478C10.2349 9.15919 9.7891 9.43341 9.34359 9.87835C8.89807 10.3233 8.62463 10.77 8.42028 11.2968C8.22241 11.8058 8.08728 12.3879 8.04848 13.2403C8.00903 14.0941 8 14.367 8 16.5415C8 18.716 8.00903 18.9889 8.04848 19.8427C8.08728 20.6951 8.22241 21.2772 8.42028 21.7862C8.62463 22.3127 8.89814 22.7599 9.34359 23.2046C9.78904 23.6494 10.2349 23.9232 10.7616 24.1282C11.2711 24.3261 11.8524 24.4613 12.7046 24.5001C13.5585 24.5389 13.831 24.5486 16.0048 24.5486C18.1786 24.5486 18.4515 24.5396 19.305 24.5001C20.1572 24.4613 20.7392 24.3261 21.248 24.1282C21.7743 23.9232 22.2205 23.6496 22.666 23.2046C23.1115 22.7597 23.3844 22.3127 23.5893 21.7862C23.7872 21.2772 23.923 20.6951 23.9611 19.8427C23.9999 18.9883 24.009 18.716 24.009 16.5415C24.009 14.367 23.9999 14.0941 23.9611 13.2403C23.9223 12.3878 23.7872 11.8054 23.5893 11.2968C23.3844 10.7703 23.1108 10.324 22.666 9.87835C22.2212 9.43271 21.7743 9.15919 21.2486 8.95478C20.7392 8.75684 20.1572 8.62104 19.3057 8.58287C18.4522 8.54405 18.1793 8.53437 16.0054 8.53437C13.8316 8.53437 13.5585 8.54341 12.7046 8.58287Z" fill="white"/>
<defs>
<linearGradient id="paint0_linear_639_194532" x1="31.385" y1="32.5" x2="-0.615039" y2="0.499999" gradientUnits="userSpaceOnUse">
<stop stop-color="#FBE18A"/>
<stop offset="0.21" stop-color="#FCBB45"/>
<stop offset="0.38" stop-color="#F75274"/>
<stop offset="0.52" stop-color="#D53692"/>
<stop offset="0.74" stop-color="#8F39CE"/>
<stop offset="1" stop-color="#5B4FE9"/>
</linearGradient>
</defs>
</svg>
