<svg width="32" height="33" viewBox="0 0 32 33" fill="none" xmlns="http://www.w3.org/2000/svg">
<rect y="0.5" width="32" height="32" rx="16" fill="#006699"/>
<path d="M12.3195 22.983V14.3388H9.44887V22.983H12.3198H12.3195ZM10.8848 13.1588C11.8856 13.1588 12.5087 12.4951 12.5087 11.6655C12.49 10.8171 11.8856 10.1719 10.9038 10.1719C9.92133 10.1719 9.27966 10.8171 9.27966 11.6655C9.27966 12.495 9.90253 13.1588 10.866 13.1588H10.8846L10.8848 13.1588ZM13.9084 22.983H16.7788V18.1562C16.7788 17.8982 16.7975 17.6395 16.8734 17.4552C17.0808 16.9388 17.5531 16.4043 18.3463 16.4043C19.3848 16.4043 19.8004 17.1969 19.8004 18.3591V22.983H22.6708V18.0267C22.6708 15.3717 21.2548 14.1362 19.3662 14.1362C17.8178 14.1362 17.1378 15.0024 16.7599 15.5923H16.779V14.3391H13.9086C13.946 15.1501 13.9083 22.9833 13.9083 22.9833L13.9084 22.983Z" fill="white"/>
</svg>
