<svg width="25" height="24" viewBox="0 0 25 24" fill="none" xmlns="http://www.w3.org/2000/svg">
<mask id="mask0_705_28671" style="mask-type:alpha" maskUnits="userSpaceOnUse" x="0" y="0" width="25" height="24">
<rect x="0.5" width="24" height="24" fill="#D9D9D9"/>
</mask>
<g mask="url(#mask0_705_28671)">
<path d="M7.5 17C6.11667 17 4.9375 16.5125 3.9625 15.5375C2.9875 14.5625 2.5 13.3833 2.5 12C2.5 10.6167 2.9875 9.4375 3.9625 8.4625C4.9375 7.4875 6.11667 7 7.5 7H10.5C10.7833 7 11.0208 7.09583 11.2125 7.2875C11.4042 7.47917 11.5 7.71667 11.5 8C11.5 8.28333 11.4042 8.52083 11.2125 8.7125C11.0208 8.90417 10.7833 9 10.5 9H7.5C6.66667 9 5.95833 9.29167 5.375 9.875C4.79167 10.4583 4.5 11.1667 4.5 12C4.5 12.8333 4.79167 13.5417 5.375 14.125C5.95833 14.7083 6.66667 15 7.5 15H10.5C10.7833 15 11.0208 15.0958 11.2125 15.2875C11.4042 15.4792 11.5 15.7167 11.5 16C11.5 16.2833 11.4042 16.5208 11.2125 16.7125C11.0208 16.9042 10.7833 17 10.5 17H7.5ZM9.5 13C9.21667 13 8.97917 12.9042 8.7875 12.7125C8.59583 12.5208 8.5 12.2833 8.5 12C8.5 11.7167 8.59583 11.4792 8.7875 11.2875C8.97917 11.0958 9.21667 11 9.5 11H15.5C15.7833 11 16.0208 11.0958 16.2125 11.2875C16.4042 11.4792 16.5 11.7167 16.5 12C16.5 12.2833 16.4042 12.5208 16.2125 12.7125C16.0208 12.9042 15.7833 13 15.5 13H9.5ZM14.5 17C14.2167 17 13.9792 16.9042 13.7875 16.7125C13.5958 16.5208 13.5 16.2833 13.5 16C13.5 15.7167 13.5958 15.4792 13.7875 15.2875C13.9792 15.0958 14.2167 15 14.5 15H17.5C18.3333 15 19.0417 14.7083 19.625 14.125C20.2083 13.5417 20.5 12.8333 20.5 12C20.5 11.1667 20.2083 10.4583 19.625 9.875C19.0417 9.29167 18.3333 9 17.5 9H14.5C14.2167 9 13.9792 8.90417 13.7875 8.7125C13.5958 8.52083 13.5 8.28333 13.5 8C13.5 7.71667 13.5958 7.47917 13.7875 7.2875C13.9792 7.09583 14.2167 7 14.5 7H17.5C18.8833 7 20.0625 7.4875 21.0375 8.4625C22.0125 9.4375 22.5 10.6167 22.5 12C22.5 13.3833 22.0125 14.5625 21.0375 15.5375C20.0625 16.5125 18.8833 17 17.5 17H14.5Z" fill="#146C8F"/>
</g>
</svg>
