<svg width="145" height="47" viewBox="0 0 145 47" fill="none" xmlns="http://www.w3.org/2000/svg">
<mask id="mask0_639_194486" style="mask-type:luminance" maskUnits="userSpaceOnUse" x="0" y="0" width="145" height="47">
<path d="M144.57 0H0V46.03H144.57V0Z" fill="white"/>
</mask>
<g mask="url(#mask0_639_194486)">
<mask id="mask1_639_194486" style="mask-type:luminance" maskUnits="userSpaceOnUse" x="0" y="0" width="145" height="46">
<path d="M144.57 0.351562H0V45.6816H144.57V0.351562Z" fill="white"/>
</mask>
<g mask="url(#mask1_639_194486)">
<path d="M120.04 5.14829C120.22 5.31829 120.36 5.44829 120.5 5.58829C122.72 7.68829 124.95 9.79829 127.17 11.9083C128.16 12.8483 129.17 13.7783 130.15 14.7383C131.76 16.3183 132.82 18.2283 133.31 20.4283C134.25 24.5983 132.9 28.9083 129.64 31.7983C129.21 32.1883 128.73 32.5083 128.24 32.8283C127.92 33.0383 127.58 33.0083 127.3 32.7383C126.52 31.9983 125.74 31.2483 124.97 30.4883C124.54 30.0683 124.64 29.5383 125.18 29.2283C126.14 28.6883 126.95 27.9683 127.59 27.0783C128.33 26.0483 128.76 24.9083 128.85 23.6383C129.02 21.3483 128.26 19.4183 126.59 17.8483C123.77 15.1783 120.94 12.5083 118.12 9.83829C116.2 8.01829 114.27 6.19829 112.34 4.37829C112.14 4.18829 111.94 4.00829 111.78 3.78829C111.45 3.33829 111.5 3.01829 111.95 2.69829C112.06 2.61829 112.17 2.54829 112.29 2.49829C114.25 1.58829 116.3 0.968293 118.44 0.638293C119.88 0.418293 121.32 0.328293 122.77 0.398293C125.22 0.498293 127.61 0.968293 129.91 1.83829C132.63 2.86829 135.07 4.36829 137.21 6.33829C140.67 9.52829 142.93 13.4183 143.99 17.9983C144.26 19.1483 144.42 20.3283 144.5 21.5083C144.61 23.1283 144.56 24.7483 144.32 26.3583C143.64 30.9083 141.74 34.8883 138.65 38.2983C137.95 39.0683 137.19 39.7883 136.39 40.4683C135.98 40.8183 135.62 40.8083 135.23 40.4383C134.5 39.7383 133.77 39.0383 133.05 38.3383C132.67 37.9683 132.69 37.5283 133.08 37.1683C133.1 37.1483 133.12 37.1383 133.14 37.1183C133.92 36.4383 134.67 35.7283 135.36 34.9583C136.66 33.4983 137.69 31.8683 138.45 30.0683C139 28.7683 139.39 27.4283 139.62 26.0383C139.87 24.5483 139.92 23.0583 139.8 21.5583C139.68 20.0783 139.38 18.6283 138.9 17.2183C138.26 15.3383 137.33 13.6083 136.1 12.0383C134.87 10.4583 133.41 9.10829 131.73 8.00829C130.2 7.00829 128.55 6.25829 126.79 5.75829C125.61 5.42829 124.4 5.21829 123.17 5.12829C122.22 5.05829 121.28 5.06829 120.33 5.13829C120.24 5.13829 120.16 5.15829 120.01 5.17829" fill="#146C8F"/>
<path d="M123.751 40.879C123.411 40.559 123.121 40.279 122.821 39.989C119.871 37.199 116.921 34.399 113.971 31.609C112.381 30.109 111.261 28.329 110.661 26.229C110.261 24.829 110.131 23.389 110.261 21.939C110.441 19.939 111.091 18.109 112.211 16.449C112.891 15.429 113.731 14.549 114.701 13.789C114.931 13.609 115.181 13.439 115.431 13.279C115.771 13.049 116.111 13.079 116.411 13.359C116.721 13.649 117.031 13.959 117.341 14.259C117.791 14.689 118.231 15.129 118.681 15.559C118.811 15.689 118.931 15.829 118.961 16.029C119.011 16.369 118.901 16.639 118.601 16.809C118.241 16.999 117.921 17.249 117.611 17.499C116.071 18.719 115.161 20.299 114.961 22.259C114.731 24.549 115.451 26.519 117.111 28.109C119.591 30.479 122.091 32.829 124.581 35.189C126.451 36.959 128.311 38.719 130.181 40.489C130.641 40.919 131.101 41.359 131.561 41.789C131.761 41.979 131.961 42.179 132.101 42.429C132.271 42.729 132.241 42.949 132.011 43.189C131.881 43.329 131.721 43.439 131.541 43.519C129.581 44.439 127.531 45.089 125.381 45.409C124.011 45.609 122.641 45.699 121.261 45.659C117.281 45.529 113.561 44.499 110.161 42.399C105.991 39.829 102.921 36.319 101.001 31.809C100.291 30.139 99.8014 28.409 99.5214 26.619C99.3114 25.309 99.2014 23.989 99.2314 22.659C99.3514 17.309 101.101 12.559 104.531 8.42903C105.151 7.67903 105.821 6.96903 106.551 6.31903C106.851 6.04903 107.181 5.81903 107.491 5.56903C107.781 5.33903 108.141 5.37902 108.431 5.63902C108.641 5.82902 108.851 6.03902 109.061 6.23902C109.601 6.76902 110.141 7.28903 110.681 7.81903C110.921 8.04903 111.021 8.32902 110.901 8.64902C110.851 8.77902 110.761 8.89902 110.651 8.97902C110.031 9.46902 109.461 10.019 108.901 10.569C108.441 11.029 108.031 11.529 107.631 12.049C106.381 13.679 105.431 15.469 104.801 17.419C104.381 18.709 104.121 20.029 103.991 21.379C103.901 22.369 103.891 23.359 103.961 24.349C104.111 26.259 104.541 28.099 105.271 29.879C106.171 32.049 107.441 33.959 109.081 35.629C110.591 37.169 112.331 38.379 114.281 39.299C115.641 39.939 117.071 40.389 118.551 40.669C119.911 40.929 121.281 41.019 122.661 40.969C123.011 40.959 123.361 40.949 123.751 40.879Z" fill="#146C8F"/>
<path d="M69.2293 19.5756V9.81559C69.2293 9.71559 69.2293 9.62559 69.2293 9.52559C69.2593 9.24559 69.4193 9.07559 69.6993 9.04559C69.7593 9.04559 69.8193 9.04559 69.8793 9.04559C72.5293 9.04559 75.1793 9.02559 77.8293 9.05559C79.6993 9.07559 81.4993 9.48559 83.1693 10.3656C85.4793 11.5756 87.0393 13.4256 87.8593 15.8956C88.3193 17.2856 88.4693 18.7156 88.4093 20.1756C88.3493 21.5756 88.0693 22.9256 87.4993 24.2056C86.5293 26.3856 84.9393 27.9756 82.7893 28.9956C81.5293 29.5956 80.1993 29.9256 78.8193 30.0556C78.2093 30.1156 77.5893 30.1356 76.9793 30.1356C74.6493 30.1356 72.3293 30.1356 69.9993 30.1356C69.8793 30.1356 69.7593 30.1356 69.6293 30.1056C69.3893 30.0456 69.2393 29.9056 69.2193 29.6556C69.2093 29.5656 69.2193 29.4656 69.2193 29.3656V19.5756M73.3993 26.4256C73.4693 26.4756 73.5293 26.4556 73.5893 26.4556C74.8493 26.4556 76.1193 26.4556 77.3793 26.4556C78.1893 26.4556 78.9893 26.3356 79.7593 26.0956C81.7493 25.4756 83.1393 24.2056 83.8193 22.2156C84.3593 20.6256 84.3693 19.0156 83.9393 17.3956C83.6193 16.1656 82.9893 15.1156 82.0193 14.2856C80.8193 13.2656 79.3993 12.8056 77.8593 12.7256C76.4093 12.6456 74.9593 12.7056 73.5193 12.6956C73.4793 12.6956 73.4293 12.6956 73.3893 12.7356V26.4056L73.3993 26.4256Z" fill="#146C8F"/>
<path d="M13.8906 30.07C13.3406 30.25 12.7806 30.31 12.2106 30.36C11.5106 30.42 10.8106 30.43 10.1106 30.36C6.28057 29.98 3.28057 28.28 1.33057 24.89C0.620569 23.65 0.220569 22.3 0.0705694 20.88C-0.109431 19.21 0.0505694 17.57 0.600569 15.98C1.40057 13.67 2.84057 11.85 4.90057 10.53C6.33057 9.61003 7.91057 9.08003 9.60057 8.87003C11.7806 8.61003 13.8906 8.84003 15.9106 9.73003C18.7206 10.97 20.6206 13.06 21.6206 15.96C22.1006 17.36 22.2706 18.81 22.1906 20.29C22.0606 22.53 21.3506 24.56 19.9606 26.33C19.8706 26.45 19.7706 26.56 19.6706 26.67C19.4706 26.87 19.2106 26.88 18.9806 26.71C18.9406 26.68 18.9006 26.64 18.8606 26.61C18.1706 25.96 17.4806 25.31 16.7906 24.66C16.4706 24.35 16.4406 24.16 16.6906 23.79C17.2906 22.93 17.7006 21.98 17.8506 20.94C18.2406 18.35 17.6206 16.08 15.6506 14.27C14.6106 13.32 13.3506 12.81 11.9506 12.66C10.4606 12.5 9.04057 12.74 7.73057 13.48C5.94057 14.49 4.84057 16.03 4.41057 18.03C4.06057 19.64 4.20057 21.23 4.92057 22.73C5.87057 24.72 7.46057 25.92 9.60057 26.42C9.77057 26.46 9.95057 26.46 10.1106 26.53C10.2306 26.65 10.3406 26.76 10.4706 26.88C11.6106 27.95 12.7606 29.01 13.9006 30.08" fill="#146C8F"/>
</g>
<mask id="mask2_639_194486" style="mask-type:luminance" maskUnits="userSpaceOnUse" x="0" y="0" width="145" height="47">
<path d="M144.57 0H0V46.03H144.57V0Z" fill="white"/>
</mask>
<g mask="url(#mask2_639_194486)">
<path d="M43.8503 15.8191C43.8503 17.7191 43.8703 19.6291 43.8503 21.5291C43.8303 22.9991 43.5503 24.4191 42.9203 25.7591C42.0403 27.6291 40.6203 28.9191 38.7103 29.6691C37.6103 30.0991 36.4703 30.3091 35.3003 30.3691C34.0603 30.4391 32.8403 30.3391 31.6403 30.0391C30.1103 29.6591 28.7603 28.9491 27.6603 27.7991C26.7103 26.8091 26.1003 25.6291 25.7403 24.3091C25.5203 23.5291 25.4103 22.7391 25.3503 21.9291C25.3203 21.3991 25.3203 20.8591 25.3203 20.3291C25.3203 16.8091 25.3203 13.2991 25.3203 9.77906C25.3203 9.66906 25.3203 9.54906 25.3403 9.43906C25.4003 9.19906 25.5303 9.07906 25.7703 9.04906C25.8503 9.04906 25.9303 9.04906 26.0103 9.04906C26.9303 9.04906 27.8503 9.04906 28.7803 9.04906C28.8503 9.04906 28.9203 9.04906 28.9903 9.04906C29.2703 9.06906 29.4403 9.22906 29.4703 9.50906C29.4803 9.60906 29.4703 9.71906 29.4703 9.82906C29.4703 13.6291 29.4703 17.4291 29.4703 21.2191C29.4703 21.8991 29.5303 22.5691 29.7303 23.2191C30.2903 25.0291 31.5003 26.1491 33.3603 26.5191C34.4103 26.7291 35.4603 26.6991 36.4803 26.3691C38.0203 25.8691 38.9803 24.8091 39.4703 23.2891C39.6903 22.6191 39.7503 21.9191 39.7503 21.2091C39.7503 17.4091 39.7503 13.6091 39.7503 9.81906C39.7503 9.71906 39.7503 9.62906 39.7503 9.52906C39.7803 9.21906 39.9503 9.05906 40.2603 9.03906C40.4403 9.03906 40.6103 9.03906 40.7903 9.03906C41.5803 9.03906 42.3703 9.03906 43.1603 9.03906C43.2403 9.03906 43.3203 9.03906 43.4003 9.03906C43.6603 9.06906 43.8303 9.23906 43.8603 9.49906C43.8603 9.59906 43.8603 9.68906 43.8603 9.78906V15.8191H43.8503Z" fill="#146C8F"/>
<path d="M60.4809 26.0617H51.5109C51.4309 26.1117 51.4209 26.2017 51.3909 26.2817C50.9509 27.3517 50.5009 28.4217 50.0609 29.4917C50.0309 29.5717 49.9909 29.6517 49.9609 29.7317C49.8509 29.9817 49.6609 30.1117 49.3909 30.1317C49.3209 30.1317 49.2509 30.1317 49.1809 30.1317C48.2209 30.1317 47.2709 30.1317 46.3109 30.1317C46.1909 30.1317 46.0609 30.1317 45.9409 30.1017C45.7109 30.0417 45.6009 29.8817 45.6409 29.6517C45.6609 29.5517 45.7009 29.4517 45.7409 29.3517C47.6809 24.9417 49.6109 20.5217 51.5509 16.1117C52.5109 13.9317 53.4709 11.7517 54.4209 9.56167C54.5809 9.18167 54.8409 9.03167 55.2409 9.03167C55.7709 9.04167 56.2909 9.04167 56.8209 9.03167C57.2309 9.02167 57.4909 9.19167 57.6509 9.57167C58.5609 11.6817 59.4809 13.7817 60.3909 15.8917C62.3109 20.3117 64.2309 24.7317 66.1509 29.1517C66.2109 29.2817 66.2709 29.4017 66.3109 29.5417C66.4109 29.8617 66.2909 30.0517 65.9609 30.1017C65.8709 30.1117 65.7709 30.1217 65.6709 30.1217C64.7109 30.1217 63.7609 30.1217 62.8009 30.1217C62.3009 30.1217 62.1509 30.0217 61.9609 29.5617C61.5009 28.4617 61.0509 27.3617 60.5909 26.2617C60.5609 26.1917 60.5409 26.1117 60.4709 26.0417M59.1609 22.5217C58.9809 21.9317 56.1209 15.1417 55.9809 14.9917C54.9209 17.5017 53.8709 19.9917 52.8109 22.5217H59.1609Z" fill="#146C8F"/>
<path d="M13.8916 30.0708C12.7516 29.0008 11.6016 27.9408 10.4616 26.8708C10.3416 26.7608 10.2216 26.6408 10.1016 26.5208C10.2816 26.4908 10.4516 26.5408 10.6216 26.5508C12.0216 26.6408 13.3416 26.3808 14.5716 25.6808C14.6416 25.6408 14.7116 25.6008 14.7816 25.5608C14.8016 25.5608 14.8116 25.5608 14.8316 25.5508C14.9216 25.5908 14.9816 25.6708 15.0516 25.7308C15.9016 26.5208 16.7416 27.3108 17.5916 28.1108C18.8416 29.2908 20.1016 30.4608 21.3516 31.6408C21.4616 31.7508 21.5816 31.8508 21.6716 31.9908C21.9116 32.3908 21.7516 32.7108 21.2816 32.7308C21.2316 32.7308 21.1816 32.7308 21.1216 32.7308C19.9616 32.7308 18.8016 32.7308 17.6416 32.7308C17.0516 32.7308 16.5516 32.5508 16.1216 32.1408C15.4616 31.5008 14.7716 30.8808 14.1016 30.2508C14.0316 30.1808 13.9616 30.1208 13.8816 30.0608" fill="#E7392A"/>
<path d="M78.2801 42.0217C78.2201 41.5217 78.2501 41.0717 78.24 40.6217C78.23 40.1717 78.2301 39.7317 78.2201 39.2817C78.2201 38.8317 78.2001 38.3817 78.1501 37.9117C78.1001 37.9917 78.0501 38.0617 78.0001 38.1417C77.4601 39.0717 76.9101 40.0017 76.3701 40.9317C76.3101 41.0317 76.2701 41.1417 76.1401 41.2017H75.3901C75.2501 41.1417 75.2101 41.0217 75.1501 40.9117C74.6201 39.9817 74.09 39.0517 73.56 38.1217C73.52 38.0517 73.4701 37.9817 73.3901 37.9217C73.3901 38.3717 73.3701 38.8217 73.3701 39.2717C73.3701 39.7217 73.3601 40.1617 73.3401 40.6117C73.3301 41.0617 73.35 41.5217 73.31 41.9517C73.06 42.0617 72.22 42.0617 71.99 41.9717C71.92 41.8917 71.9401 41.7917 71.9401 41.7017C72.0101 39.5617 72.0701 37.4217 72.1401 35.2817C72.1401 35.1817 72.14 35.0917 72.24 34.9917C72.48 34.9517 72.75 34.9717 73.06 34.9917C73.51 35.7517 73.9601 36.5217 74.4201 37.2917C74.8701 38.0517 75.3201 38.8117 75.7801 39.6017C76.7201 38.0417 77.6301 36.5217 78.5501 35.0017C78.8501 34.9717 79.1101 34.9717 79.3501 35.0017C79.4701 35.0917 79.4601 35.1917 79.4601 35.2817C79.5001 36.6117 79.5301 37.9417 79.5701 39.2817C79.5901 40.0717 79.6201 40.8617 79.6501 41.6517C79.6501 41.7617 79.6801 41.8817 79.5701 42.0217C79.1801 42.0717 78.7601 42.0517 78.2901 42.0217" fill="#146C8F"/>
<path d="M65.3329 35.0049C65.6729 34.9549 69.9329 34.9749 70.1429 35.0349C70.2229 35.3849 70.1629 35.7449 70.1729 36.0749C70.0629 36.2349 69.9329 36.2049 69.8129 36.2049C68.8629 36.2049 67.9129 36.2049 66.9729 36.2049C66.8829 36.2049 66.7829 36.1849 66.6729 36.2349V37.8249C66.7629 37.8749 66.8629 37.8549 66.9629 37.8549C67.7829 37.8549 68.5929 37.8549 69.4129 37.8549C69.5229 37.8549 69.6429 37.8449 69.7529 37.9649V38.9849C69.6729 39.1149 69.5429 39.0949 69.4229 39.0949C68.6129 39.0949 67.8129 39.0949 67.0029 39.0949H66.7229C66.6629 39.2849 66.6529 40.3749 66.6929 40.7849C66.7729 40.8349 66.8729 40.8149 66.9629 40.8149C67.9129 40.8149 68.8629 40.8149 69.8029 40.8149C69.9129 40.8149 70.0329 40.8049 70.1429 40.8449C70.2529 41.0249 70.2729 41.6849 70.1729 41.9649C70.1029 42.0349 70.0129 42.0349 69.9329 42.0349H65.5629C65.4629 42.0349 65.3629 42.0349 65.2929 41.9549C65.2429 41.7749 65.2029 35.7349 65.2429 35.2049C65.2429 35.1349 65.2629 35.0649 65.3329 35.0049Z" fill="#146C8F"/>
<path d="M86.2934 35.6539C86.1134 35.9639 85.9434 36.2939 85.7234 36.5539C85.5634 36.5939 85.4834 36.5039 85.3834 36.4539C84.7734 36.1339 84.1334 36.0239 83.4534 36.1539C83.2934 36.1839 83.1534 36.2439 83.0334 36.3539C82.7034 36.6339 82.7134 37.0939 83.0634 37.3539C83.2434 37.4939 83.4634 37.5639 83.6834 37.6339C84.1034 37.7739 84.5434 37.8839 84.9534 38.0539C85.1334 38.1239 85.3034 38.2039 85.4734 38.3039C86.2334 38.7339 86.5234 39.4639 86.3934 40.3139C86.2534 41.2739 85.6334 41.8339 84.7334 42.0239C83.5734 42.2739 82.4534 42.1139 81.4034 41.5139C81.3234 41.4639 81.2334 41.4239 81.1734 41.3339C81.1334 41.2539 81.1334 41.1639 81.1834 41.0839C81.3534 40.8139 81.5334 40.5439 81.6934 40.2939C81.8634 40.2139 81.9534 40.3139 82.0534 40.3839C82.6734 40.7839 83.3434 40.9539 84.0834 40.9139C84.2034 40.9139 84.3234 40.8839 84.4434 40.8439C84.7434 40.7339 84.9534 40.5439 84.9934 40.2039C85.0434 39.8539 84.9034 39.5839 84.6134 39.4039C84.3534 39.2439 84.0734 39.1539 83.7934 39.0639C83.3234 38.9239 82.8534 38.7839 82.4034 38.5739C80.9434 37.8939 81.1234 36.0539 82.1934 35.3639C82.5734 35.1239 82.9834 34.9739 83.4234 34.9339C84.3234 34.8339 85.1934 34.9339 86.0034 35.3839C86.1134 35.4439 86.2434 35.4939 86.3034 35.6739" fill="#146C8F"/>
<path d="M38.22 41.3225C38.18 41.2425 38.19 41.1525 38.24 41.0725C38.41 40.8025 38.59 40.5325 38.75 40.2825C38.92 40.2125 39.02 40.3125 39.11 40.3725C39.73 40.7725 40.4 40.9425 41.14 40.9025C41.27 40.9025 41.4 40.8725 41.52 40.8225C41.81 40.7125 42.01 40.5125 42.05 40.1925C42.09 39.8525 41.97 39.5925 41.68 39.4025C41.42 39.2325 41.13 39.1425 40.83 39.0525C40.33 38.9025 39.83 38.7725 39.37 38.5225C38.84 38.2325 38.48 37.8125 38.41 37.1925C38.31 36.2825 38.75 35.5325 39.58 35.1625C40.19 34.8825 40.83 34.8525 41.49 34.9125C42.06 34.9625 42.61 35.1125 43.11 35.4125C43.1967 35.4658 43.2733 35.5425 43.34 35.6425C43.19 35.9725 42.98 36.2825 42.78 36.5525C42.61 36.5825 42.52 36.4925 42.42 36.4425C41.82 36.1225 41.18 36.0125 40.51 36.1425C40.37 36.1725 40.24 36.2225 40.12 36.3025C39.73 36.5725 39.72 37.0925 40.12 37.3625C40.3 37.4925 40.51 37.5625 40.72 37.6325C41.14 37.7725 41.58 37.8925 41.99 38.0525C42.17 38.1225 42.34 38.2025 42.51 38.3025C43.27 38.7325 43.54 39.4425 43.43 40.2625C43.32 41.1825 42.76 41.7625 41.88 41.9825C40.66 42.2825 39.48 42.1225 38.38 41.4725C38.31 41.4325 38.24 41.3925 38.2 41.3225" fill="#146C8F"/>
<path d="M56.7523 35.6517C56.5623 35.9617 56.4023 36.2917 56.1723 36.5517C56.0223 36.5817 55.9423 36.5017 55.8523 36.4517C55.2423 36.1217 54.6023 36.0117 53.9223 36.1417C53.7823 36.1717 53.6523 36.2217 53.5323 36.3017C53.1423 36.5717 53.1423 37.0917 53.5323 37.3617C53.7123 37.4917 53.9223 37.5617 54.1323 37.6317C54.5523 37.7717 54.9923 37.8817 55.4023 38.0517C55.5823 38.1217 55.7523 38.2017 55.9223 38.3017C56.6823 38.7317 56.9623 39.4617 56.8423 40.3117C56.7023 41.2717 56.0823 41.8217 55.1723 42.0117C54.0123 42.2617 52.8923 42.1017 51.8523 41.4917C51.7723 41.4417 51.6823 41.4017 51.6223 41.3117C51.5823 41.2217 51.5923 41.1417 51.6423 41.0617C51.8123 40.7917 51.9923 40.5117 52.1523 40.2717C52.3323 40.2017 52.4223 40.3017 52.5223 40.3617C53.1423 40.7617 53.8123 40.9317 54.5523 40.8817C54.7023 40.8817 54.8423 40.8417 54.9823 40.7817C55.5623 40.5217 55.6523 39.7917 55.1323 39.4117C54.9623 39.2817 54.7723 39.2017 54.5623 39.1317C54.1723 39.0017 53.7723 38.8817 53.3823 38.7617C53.1723 38.6917 52.9723 38.6017 52.7823 38.5017C51.4923 37.8517 51.6323 36.3117 52.3123 35.6217C52.5723 35.3517 52.8823 35.1517 53.2423 35.0517C54.3723 34.7217 55.4623 34.8217 56.5023 35.3817C56.6523 35.4617 56.6523 35.4617 56.7623 35.6417" fill="#146C8F"/>
<path d="M49.4297 35.0134C49.9297 34.9334 50.7897 34.9634 50.9697 35.0834C50.8097 35.4534 50.5597 35.7834 50.3497 36.1334C50.1397 36.4834 49.9197 36.8334 49.6997 37.1834C49.4797 37.5334 49.2697 37.8834 49.0497 38.2334C48.8297 38.5834 48.6197 38.9334 48.3897 39.3034V41.9134C48.3397 42.0034 48.2897 42.0334 48.2297 42.0334C47.8397 42.0334 47.4397 42.0634 47.0797 42.0134C46.9597 41.9034 46.9797 41.7834 46.9797 41.6734C46.9797 40.9734 46.9797 40.2734 46.9797 39.5734V39.2834C46.1297 37.8834 45.2597 36.4934 44.4297 35.1234C44.4797 35.0034 44.5397 34.9834 44.5997 34.9834C45.0697 34.9834 45.5297 34.9834 45.9997 34.9834C46.2497 35.2834 46.3997 35.6234 46.5997 35.9434C46.7897 36.2534 46.9697 36.5834 47.1597 36.8934C47.3497 37.2134 47.5397 37.5434 47.7497 37.9034C48.3297 36.9134 48.8897 35.9634 49.4397 35.0134" fill="#146C8F"/>
<path d="M57.7603 35.0217C58.0203 34.9617 63.6403 34.9617 63.8503 35.0217C63.9303 35.1917 63.9503 35.7517 63.8903 36.1017C63.8103 36.2217 63.6903 36.2017 63.5803 36.2017C62.9903 36.2017 62.4003 36.2017 61.8203 36.2017C61.7303 36.2017 61.6503 36.1817 61.5603 36.2217C61.5203 36.3117 61.5403 36.4117 61.5403 36.5017C61.5403 38.2117 61.5403 39.9217 61.5403 41.6317C61.5403 41.7417 61.5703 41.8617 61.4503 41.9917C61.1203 42.0617 60.7503 42.0017 60.3903 42.0217C60.3003 42.0217 60.2203 42.0217 60.1203 41.9017V36.1817H57.8603C57.7303 36.1017 57.7103 36.0117 57.7203 35.9217C57.7403 35.6117 57.6703 35.3017 57.7703 35.0017" fill="#146C8F"/>
</g>
</g>
</svg>
