<svg width="32" height="32" viewBox="0 0 32 32" fill="none" xmlns="http://www.w3.org/2000/svg">
<mask id="mask0_705_45821" style="mask-type:alpha" maskUnits="userSpaceOnUse" x="0" y="0" width="32" height="32">
<rect width="32" height="32" fill="#D9D9D9"/>
</mask>
<g mask="url(#mask0_705_45821)">
<path d="M15.5 12.7966C13.4547 12.7966 11.7966 14.4547 11.7966 16.5C11.7966 18.5453 13.4547 20.2034 15.5 20.2034M15.5 12.7966C17.5453 12.7966 19.2034 14.4547 19.2034 16.5C19.2034 18.5453 17.5453 20.2034 15.5 20.2034M15.5 12.7966C14.8061 10.471 13.4792 8.8983 11.956 8.8983C9.71496 8.8983 7.8983 12.3017 7.8983 16.5C7.8983 20.6983 9.71496 24.1017 11.956 24.1017C13.4792 24.1017 14.8061 22.529 15.5 20.2034M15.5 12.7966C14.7083 8.26235 12.5031 5 9.90652 5C6.64446 5 4 10.1487 4 16.5C4 22.8513 6.64446 28 9.90652 28C12.5031 28 14.7083 24.7377 15.5 20.2034M15.5 12.7966C16.1939 10.471 17.5208 8.8983 19.044 8.8983C21.285 8.8983 23.1017 12.3017 23.1017 16.5C23.1017 20.6983 21.285 24.1017 19.044 24.1017C17.5208 24.1017 16.1939 22.529 15.5 20.2034M15.5 12.7966C16.2917 8.26235 18.4969 5 21.0935 5C24.3555 5 27 10.1487 27 16.5C27 22.8513 24.3555 28 21.0935 28C18.4969 28 16.2917 24.7377 15.5 20.2034" stroke="white" stroke-width="2.2" stroke-miterlimit="10"/>
</g>
</svg>
