<svg width="20" height="20" viewBox="0 0 20 20" fill="none" xmlns="http://www.w3.org/2000/svg">
<mask id="mask0_705_111147" style="mask-type:alpha" maskUnits="userSpaceOnUse" x="0" y="0" width="20" height="20">
<rect width="20" height="20" fill="#D9D9D9"/>
</mask>
<g mask="url(#mask0_705_111147)">
<path d="M3.33268 16.6667C2.87435 16.6667 2.48199 16.5035 2.1556 16.1771C1.82921 15.8507 1.66602 15.4583 1.66602 15V5.00001C1.66602 4.54168 1.82921 4.14932 2.1556 3.82293C2.48199 3.49654 2.87435 3.33334 3.33268 3.33334H16.666C17.1243 3.33334 17.5167 3.49654 17.8431 3.82293C18.1695 4.14932 18.3327 4.54168 18.3327 5.00001V15C18.3327 15.4583 18.1695 15.8507 17.8431 16.1771C17.5167 16.5035 17.1243 16.6667 16.666 16.6667H3.33268ZM16.666 6.66668L10.4368 10.5625C10.3674 10.6042 10.2945 10.6354 10.2181 10.6563C10.1417 10.6771 10.0688 10.6875 9.99935 10.6875C9.9299 10.6875 9.85699 10.6771 9.7806 10.6563C9.70421 10.6354 9.63129 10.6042 9.56185 10.5625L3.33268 6.66668V15H16.666V6.66668ZM9.99935 9.16668L16.666 5.00001H3.33268L9.99935 9.16668ZM3.33268 6.87501V5.64584V5.66668V5.65626V6.87501Z" fill="#146C8F"/>
</g>
</svg>
