<svg width="20" height="21" viewBox="0 0 20 21" fill="none" xmlns="http://www.w3.org/2000/svg">
<mask id="mask0_639_194527" style="mask-type:alpha" maskUnits="userSpaceOnUse" x="0" y="0" width="20" height="21">
<rect y="0.5" width="20" height="20" fill="#D9D9D9"/>
</mask>
<g mask="url(#mask0_639_194527)">
<path d="M5.83329 19.6667C5.37496 19.6667 4.9826 19.5035 4.65621 19.1771C4.32982 18.8507 4.16663 18.4583 4.16663 18V3C4.16663 2.54167 4.32982 2.1493 4.65621 1.82292C4.9826 1.49653 5.37496 1.33333 5.83329 1.33333H14.1666C14.625 1.33333 15.0173 1.49653 15.3437 1.82292C15.6701 2.1493 15.8333 2.54167 15.8333 3V5.58333C16.0833 5.68055 16.2847 5.83333 16.4375 6.04167C16.5902 6.25 16.6666 6.48611 16.6666 6.75V8.41667C16.6666 8.68055 16.5902 8.91667 16.4375 9.125C16.2847 9.33333 16.0833 9.48611 15.8333 9.58333V18C15.8333 18.4583 15.6701 18.8507 15.3437 19.1771C15.0173 19.5035 14.625 19.6667 14.1666 19.6667H5.83329ZM5.83329 18H14.1666V3H5.83329V18ZM9.99996 5.5C10.2361 5.5 10.434 5.42014 10.5937 5.26042C10.7534 5.10069 10.8333 4.90278 10.8333 4.66667C10.8333 4.43055 10.7534 4.23264 10.5937 4.07292C10.434 3.91319 10.2361 3.83333 9.99996 3.83333C9.76385 3.83333 9.56593 3.91319 9.40621 4.07292C9.24649 4.23264 9.16663 4.43055 9.16663 4.66667C9.16663 4.90278 9.24649 5.10069 9.40621 5.26042C9.56593 5.42014 9.76385 5.5 9.99996 5.5Z" fill="#146C8F"/>
</g>
</svg>
