<svg width="32" height="32" viewBox="0 0 32 32" fill="none" xmlns="http://www.w3.org/2000/svg">
<mask id="mask0_705_97368" style="mask-type:alpha" maskUnits="userSpaceOnUse" x="0" y="0" width="32" height="32">
<rect width="32" height="32" fill="#D9D9D9"/>
</mask>
<g mask="url(#mask0_705_97368)">
<path d="M14.1327 29.3333C12.9993 29.3333 12.1382 28.9944 11.5493 28.3166C10.9605 27.6388 10.666 26.8666 10.666 26C10.666 25.4222 10.7938 24.8611 11.0493 24.3166C11.3049 23.7722 11.6993 23.3222 12.2327 22.9666C12.7216 22.6555 13.116 22.2555 13.416 21.7666C13.716 21.2777 13.9216 20.7555 14.0327 20.2L13.6327 20C13.4993 19.9333 13.3771 19.8555 13.266 19.7666L10.1993 20.8666C9.82157 21 9.4549 21.1111 9.09935 21.2C8.74379 21.2888 8.37713 21.3333 7.99935 21.3333C6.59935 21.3333 5.36046 20.7222 4.28268 19.5C3.2049 18.2777 2.66602 16.4888 2.66602 14.1333C2.66602 13 3.0049 12.1388 3.68268 11.55C4.36046 10.9611 5.12157 10.6666 5.96602 10.6666C6.54379 10.6666 7.11046 10.7944 7.66602 11.05C8.22157 11.3055 8.67713 11.7 9.03268 12.2333C9.34379 12.7222 9.74379 13.1166 10.2327 13.4166C10.7216 13.7166 11.2438 13.9222 11.7993 14.0333L11.9993 13.6333C12.066 13.5 12.1438 13.3777 12.2327 13.2666L11.1327 10.2C10.9993 9.82218 10.8882 9.45551 10.7993 9.09996C10.7105 8.7444 10.666 8.38885 10.666 8.03329C10.666 6.61107 11.2771 5.36107 12.4993 4.28329C13.7216 3.20551 15.5105 2.66663 17.866 2.66663C18.9993 2.66663 19.8605 3.00551 20.4493 3.68329C21.0382 4.36107 21.3327 5.12218 21.3327 5.96663C21.3327 6.5444 21.2049 7.11107 20.9493 7.66663C20.6938 8.22218 20.2993 8.67774 19.766 9.03329C19.2771 9.3444 18.8827 9.7444 18.5827 10.2333C18.2827 10.7222 18.0771 11.2444 17.966 11.8L18.366 12C18.4993 12.0666 18.6216 12.1444 18.7327 12.2333L21.7993 11.1C22.1771 10.9666 22.5382 10.8611 22.8827 10.7833C23.2271 10.7055 23.5882 10.6666 23.966 10.6666C25.766 10.6666 27.1105 11.4111 27.9993 12.9C28.8882 14.3888 29.3327 16.0444 29.3327 17.8666C29.3327 19 28.9771 19.8611 28.266 20.45C27.5549 21.0388 26.766 21.3333 25.8993 21.3333C25.3438 21.3333 24.8049 21.2055 24.2827 20.95C23.7605 20.6944 23.3216 20.3 22.966 19.7666C22.6549 19.2777 22.2549 18.8833 21.766 18.5833C21.2771 18.2833 20.7549 18.0777 20.1993 17.9666L19.9993 18.3666C19.9327 18.5 19.8549 18.6222 19.766 18.7333L20.866 21.8C20.9993 22.1555 21.1105 22.4944 21.1993 22.8166C21.2882 23.1388 21.3327 23.4777 21.3327 23.8333C21.3549 25.2777 20.7549 26.5555 19.5327 27.6666C18.3105 28.7777 16.5105 29.3333 14.1327 29.3333ZM15.9993 18C16.5549 18 17.0271 17.8055 17.416 17.4166C17.8049 17.0277 17.9993 16.5555 17.9993 16C17.9993 15.4444 17.8049 14.9722 17.416 14.5833C17.0271 14.1944 16.5549 14 15.9993 14C15.4438 14 14.9716 14.1944 14.5827 14.5833C14.1938 14.9722 13.9993 15.4444 13.9993 16C13.9993 16.5555 14.1938 17.0277 14.5827 17.4166C14.9716 17.8055 15.4438 18 15.9993 18ZM14.466 11.6C14.5993 11.5555 14.7382 11.5166 14.8827 11.4833C15.0271 11.45 15.166 11.4222 15.2993 11.4C15.4771 10.4666 15.816 9.59996 16.316 8.79996C16.816 7.99996 17.4771 7.33329 18.2993 6.79996C18.4105 6.71107 18.4993 6.59996 18.566 6.46663C18.6327 6.33329 18.666 6.16663 18.666 5.96663C18.666 5.78885 18.5993 5.63885 18.466 5.51663C18.3327 5.3944 18.1327 5.33329 17.866 5.33329C17.0216 5.33329 16.066 5.51663 14.9993 5.88329C13.9327 6.24996 13.3771 6.96663 13.3327 8.03329C13.3327 8.23329 13.3605 8.42218 13.416 8.59996C13.4716 8.77774 13.5216 8.9444 13.566 9.09996L14.466 11.6ZM7.99935 18.6666C8.31046 18.6666 8.67713 18.5888 9.09935 18.4333L11.5993 17.5333C11.5549 17.4 11.516 17.2611 11.4827 17.1166C11.4493 16.9722 11.4216 16.8333 11.3993 16.7C10.466 16.5222 9.59935 16.1833 8.79935 15.6833C7.99935 15.1833 7.33268 14.5222 6.79935 13.7C6.71046 13.5888 6.59379 13.5 6.44935 13.4333C6.3049 13.3666 6.14379 13.3333 5.96602 13.3333C5.76602 13.3333 5.61046 13.4 5.49935 13.5333C5.38824 13.6666 5.33268 13.8666 5.33268 14.1333C5.33268 15.3333 5.56046 16.3888 6.01602 17.3C6.47157 18.2111 7.13268 18.6666 7.99935 18.6666ZM14.1327 26.6666C15.1771 26.6666 16.2049 26.4555 17.216 26.0333C18.2271 25.6111 18.7105 24.8777 18.666 23.8333C18.666 23.6555 18.6382 23.4888 18.5827 23.3333C18.5271 23.1777 18.4771 23.0333 18.4327 22.9L17.5327 20.4C17.3993 20.4444 17.2605 20.4833 17.116 20.5166C16.9716 20.55 16.8327 20.5777 16.6993 20.6C16.5216 21.5333 16.1827 22.4 15.6827 23.2C15.1827 24 14.5216 24.6666 13.6993 25.2C13.5882 25.2888 13.4938 25.4055 13.416 25.55C13.3382 25.6944 13.3105 25.8444 13.3327 26C13.3549 26.1777 13.4216 26.3333 13.5327 26.4666C13.6438 26.6 13.8438 26.6666 14.1327 26.6666ZM25.8993 18.6666C26.0993 18.6666 26.2771 18.6111 26.4327 18.5C26.5882 18.3888 26.666 18.1777 26.666 17.8666C26.666 17.0222 26.4882 16.0611 26.1327 14.9833C25.7771 13.9055 25.0549 13.3555 23.966 13.3333C23.766 13.3333 23.5771 13.3555 23.3993 13.4C23.2216 13.4444 23.0549 13.4888 22.8993 13.5333L20.3993 14.4666C20.4438 14.6 20.4827 14.7388 20.516 14.8833C20.5493 15.0277 20.5771 15.1666 20.5993 15.3C21.5327 15.4777 22.3993 15.8166 23.1993 16.3166C23.9993 16.8166 24.666 17.4777 25.1993 18.3C25.266 18.4111 25.366 18.5 25.4993 18.5666C25.6327 18.6333 25.766 18.6666 25.8993 18.6666Z" fill="white"/>
</g>
</svg>
