<svg width="32" height="32" viewBox="0 0 32 32" fill="none" xmlns="http://www.w3.org/2000/svg">
<mask id="mask0_705_97384" style="mask-type:alpha" maskUnits="userSpaceOnUse" x="0" y="0" width="32" height="32">
<rect width="32" height="32" fill="#D9D9D9"/>
</mask>
<g mask="url(#mask0_705_97384)">
<path d="M14.666 23.8L11.2327 27.1666C10.9882 27.4111 10.6827 27.5333 10.316 27.5333C9.94935 27.5333 9.64379 27.4 9.39935 27.1333C9.13268 26.8888 8.99935 26.5833 8.99935 26.2166C8.99935 25.85 9.13268 25.5333 9.39935 25.2666L14.666 20V17.3333H11.9993L6.69935 22.6333C6.4549 22.8777 6.14935 23 5.78268 23C5.41602 23 5.09935 22.8666 4.83268 22.6C4.58824 22.3555 4.46602 22.05 4.46602 21.6833C4.46602 21.3166 4.58824 21.0111 4.83268 20.7666L8.19935 17.3333H3.96602C3.58824 17.3333 3.27713 17.2055 3.03268 16.95C2.78824 16.6944 2.66602 16.3777 2.66602 16C2.66602 15.6222 2.79379 15.3055 3.04935 15.05C3.3049 14.7944 3.62157 14.6666 3.99935 14.6666H8.19935L4.83268 11.2666C4.58824 11.0222 4.46602 10.7166 4.46602 10.35C4.46602 9.98329 4.59935 9.66663 4.86602 9.39996C5.11046 9.15551 5.41602 9.03329 5.78268 9.03329C6.14935 9.03329 6.46602 9.15551 6.73268 9.39996L11.9993 14.6666H14.666V12L9.36602 6.73329C9.12157 6.48885 8.99935 6.18329 8.99935 5.81663C8.99935 5.44996 9.13268 5.13329 9.39935 4.86663C9.64379 4.62218 9.94935 4.49996 10.316 4.49996C10.6827 4.49996 10.9882 4.62218 11.2327 4.86663L14.666 8.19996V3.99996C14.666 3.62218 14.7938 3.30551 15.0493 3.04996C15.3049 2.7944 15.6216 2.66663 15.9993 2.66663C16.3771 2.66663 16.6938 2.7944 16.9493 3.04996C17.2049 3.30551 17.3327 3.62218 17.3327 3.99996V8.19996L20.7327 4.86663C20.9771 4.62218 21.2827 4.49996 21.6493 4.49996C22.016 4.49996 22.3327 4.62218 22.5993 4.86663C22.8438 5.13329 22.966 5.44996 22.966 5.81663C22.966 6.18329 22.8438 6.48885 22.5993 6.73329L17.3327 12V14.6666H19.9993L25.266 9.39996C25.5105 9.15551 25.816 9.03329 26.1827 9.03329C26.5493 9.03329 26.866 9.16663 27.1327 9.43329C27.3771 9.67774 27.4993 9.98329 27.4993 10.35C27.4993 10.7166 27.3771 11.0222 27.1327 11.2666L23.7993 14.6666H27.9993C28.3771 14.6666 28.6938 14.7944 28.9493 15.05C29.2049 15.3055 29.3327 15.6222 29.3327 16C29.3327 16.3777 29.2049 16.6944 28.9493 16.95C28.6938 17.2055 28.3771 17.3333 27.9993 17.3333H23.7993L27.1327 20.7666C27.3771 21.0111 27.4993 21.3166 27.4993 21.6833C27.4993 22.05 27.3771 22.3555 27.1327 22.6C26.866 22.8666 26.5493 23 26.1827 23C25.816 23 25.5105 22.8666 25.266 22.6L19.9993 17.3333H17.3327V20L22.5993 25.3C22.8438 25.5444 22.966 25.85 22.966 26.2166C22.966 26.5833 22.8327 26.9 22.566 27.1666C22.3216 27.4111 22.016 27.5333 21.6493 27.5333C21.2827 27.5333 20.9771 27.4111 20.7327 27.1666L17.3327 23.8V28.0333C17.3327 28.4111 17.2049 28.7222 16.9493 28.9666C16.6938 29.2111 16.3771 29.3333 15.9993 29.3333C15.6216 29.3333 15.3049 29.2055 15.0493 28.95C14.7938 28.6944 14.666 28.3777 14.666 28V23.8Z" fill="white"/>
</g>
</svg>
