<svg width="32" height="32" viewBox="0 0 32 32" fill="none" xmlns="http://www.w3.org/2000/svg">
<mask id="mask0_705_63091" style="mask-type:alpha" maskUnits="userSpaceOnUse" x="0" y="0" width="32" height="32">
<rect width="32" height="32" fill="#D9D9D9"/>
</mask>
<g mask="url(#mask0_705_63091)">
<path fill-rule="evenodd" clip-rule="evenodd" d="M20.595 3.29026C23.3841 2.65463 25.8186 3.08441 27.3679 4.63108L27.3985 4.66171L27.4023 4.66841C29.1867 6.4863 29.4481 9.39731 28.328 12.7564L28.3271 12.7593C27.9431 13.8815 27.4569 14.966 26.8777 16.0008C28.1421 18.2856 28.854 20.4873 28.9713 22.4216C29.0921 24.4127 28.5829 26.147 27.3679 27.3619L27.3602 27.3705C26.7754 27.9211 26.085 28.3482 25.3317 28.6271C24.5784 28.9059 23.7763 29.0306 22.9739 28.9936C21.7006 28.9693 20.4392 28.7415 19.2375 28.3199C17.8938 27.8573 16.6029 27.2539 15.3863 26.5197L15.2963 26.469C15.2761 26.4565 15.2566 26.4423 15.237 26.4288L14.5066 25.9684C12.8189 24.8686 11.251 23.5933 9.83015 22.1632C9.4449 21.7781 9.06892 21.3808 8.7082 20.9803L8.35208 20.5783C8.11332 20.3037 7.99352 19.9451 8.01894 19.5821C8.04449 19.2192 8.21339 18.8809 8.48802 18.6422C8.76261 18.4039 9.12087 18.2839 9.48361 18.3092C9.84653 18.3347 10.185 18.5036 10.4237 18.7781C10.8485 19.2675 11.3025 19.7539 11.7716 20.2233C13.0551 21.5137 14.4714 22.6661 15.9932 23.6638C17.5208 22.6685 18.941 21.5168 20.2274 20.2242L20.2341 20.2175C22.6679 17.887 24.5445 15.0373 25.7251 11.8817C26.506 9.53711 26.3764 7.73831 25.593 6.75764L25.4274 6.57197C24.6457 5.7906 23.1885 5.5118 21.2067 5.96521C20.8521 6.04607 20.479 5.98243 20.1709 5.78911C19.8627 5.59553 19.6431 5.28732 19.5621 4.93255C19.4812 4.57805 19.5448 4.20593 19.7382 3.89799C19.9318 3.58998 20.2402 3.37128 20.595 3.29026ZM19.8043 28.094C19.9519 28.1393 20.1002 28.182 20.2494 28.2213C20.5476 28.2999 20.8488 28.3668 21.1521 28.4213C21.7586 28.5305 22.3741 28.5909 22.9921 28.6022C21.7561 28.5797 20.5312 28.3589 19.3649 27.9495L19.8043 28.094ZM25.1958 28.2586C24.939 28.3537 24.6755 28.4291 24.4089 28.4854C24.5841 28.4484 24.7583 28.4043 24.9296 28.3505L25.1958 28.2586ZM13.3233 24.6678C14.0067 25.1743 14.7133 25.6503 15.4409 26.0938C15.4805 26.1226 15.5228 26.1488 15.5663 26.1713C16.4658 26.7158 17.4071 27.1869 18.3807 27.581L17.8964 27.3772C17.0943 27.0273 16.3159 26.6251 15.5663 26.1713C15.5228 26.1488 15.4805 26.1226 15.4409 26.0938C14.4708 25.5025 13.5378 24.8534 12.6475 24.151L13.3233 24.6678ZM27.0903 27.0843C26.9558 27.2109 26.8148 27.3299 26.669 27.4423C26.7408 27.3869 26.8124 27.3307 26.8816 27.2719L27.0903 27.0843ZM25.1556 18.6757C24.2523 19.9134 23.2534 21.079 22.1688 22.1622C21.087 23.25 19.922 24.2517 18.6842 25.1568C19.1507 25.3665 19.6269 25.5547 20.1115 25.7186C22.6177 26.5536 24.4982 26.3508 25.4274 25.4219C26.0305 24.8186 26.3238 23.8487 26.2411 22.5661C26.1686 21.441 25.8064 20.1136 25.1556 18.6757ZM21.8912 21.8857C20.8207 22.9621 19.6673 23.9526 18.442 24.8477L17.9126 25.2257C18.8021 24.6061 19.6559 23.9375 20.4696 23.2227C20.6323 23.0797 20.7935 22.9348 20.953 22.7882C21.2722 22.4948 21.5853 22.1932 21.8912 21.8857ZM8.99826 20.7181C9.35489 21.1141 9.7276 21.5057 10.1087 21.8866C10.7092 22.491 11.3363 23.0673 11.9879 23.6141L11.3446 23.0571C10.9212 22.6795 10.5092 22.2896 10.1087 21.8866C9.60075 21.379 9.10854 20.8515 8.64789 20.3209L8.99826 20.7181ZM27.9557 12.632C27.8097 13.0586 27.6485 13.4795 27.4732 13.8943C27.5885 13.6215 27.6989 13.3464 27.8015 13.0684L27.9557 12.632ZM25.7041 6.29443C24.7798 5.37049 23.1508 5.11734 21.1186 5.58239C21.0888 5.58919 21.0587 5.59469 21.0286 5.59866L21.1186 5.58239C23.1508 5.11739 24.7808 5.37139 25.705 6.29539C25.8944 6.485 26.0543 6.70488 26.1866 6.95096C26.0542 6.70444 25.8938 6.48431 25.7041 6.29443Z" fill="white"/>
<path fill-rule="evenodd" clip-rule="evenodd" d="M4.63202 4.63108C6.3354 2.92927 9.01653 2.58541 12.1305 3.47689L12.7585 3.67212L12.7624 3.67308C13.9768 4.09217 15.1487 4.62593 16.2613 5.26656L16.7352 5.54793L16.7486 5.55559C16.751 5.55699 16.7547 5.55935 16.7581 5.56133C16.7674 5.56666 16.7818 5.57657 16.7993 5.58813C18.7516 6.78249 20.5554 8.20671 22.1688 9.82976C22.6831 10.3437 23.1819 10.8778 23.6488 11.4156C23.8871 11.6902 24.0065 12.0491 23.9809 12.4119C23.9552 12.7745 23.7864 13.1123 23.5119 13.3507C23.2372 13.5891 22.8791 13.7092 22.5163 13.6838C22.1986 13.6614 21.8996 13.5291 21.67 13.3124L21.5762 13.2148C21.1514 12.7255 20.6974 12.239 20.2283 11.7697C18.9448 10.4792 17.5285 9.32685 16.0066 8.32911C14.4793 9.32442 13.0595 10.4761 11.7735 11.7687L11.7668 11.7754C9.33386 14.1045 7.45666 16.9519 6.2757 20.1056C5.4407 22.6093 5.64442 24.492 6.57246 25.421C7.35437 26.2023 8.8116 26.4814 10.7942 26.0278C11.149 25.9468 11.5218 26.0103 11.83 26.2038C12.1379 26.3974 12.3568 26.7058 12.4378 27.0604C12.5186 27.4149 12.4552 27.788 12.2617 28.0959C12.0681 28.4037 11.7595 28.6227 11.4049 28.7037L11.404 28.7027C10.628 28.8852 9.83366 28.9817 9.03655 28.9879L9.03559 28.9869C8.2357 29.0225 7.43641 28.8996 6.68447 28.6242C5.92729 28.3469 5.23289 27.9206 4.64255 27.3714L4.60617 27.3379L4.59851 27.3255C2.8135 25.5077 2.55167 22.5961 3.67185 19.2366L3.67281 19.2337C4.05678 18.1118 4.54303 17.0276 5.12216 15.9931C3.85785 13.7085 3.14602 11.5065 3.02854 9.57231C2.90778 7.58112 3.41691 5.846 4.63202 4.63108ZM4.48268 26.5934C4.61302 26.7649 4.75424 26.9289 4.90772 27.0824L4.90964 27.0843C5.46174 27.598 6.1113 27.9973 6.81945 28.2567C7.52744 28.5159 8.28054 28.631 9.03368 28.5955C9.80277 28.5896 10.5692 28.4972 11.3178 28.3208C11.3329 28.3174 11.347 28.3106 11.3618 28.3065C11.3472 28.3106 11.3327 28.3155 11.3178 28.3189C10.5691 28.4953 9.80285 28.5877 9.03368 28.5936C8.28018 28.6292 7.52679 28.5142 6.81849 28.2548C6.11026 27.9954 5.46082 27.5971 4.90868 27.0834L4.90772 27.0805C4.75449 26.9272 4.61284 26.7646 4.48268 26.5934ZM11.9295 27.8854C11.9053 27.9239 11.8771 27.9591 11.8481 27.9935C11.8561 27.9841 11.8664 27.9765 11.874 27.9667L11.9295 27.8873C11.9334 27.8811 11.9353 27.8735 11.9391 27.8672C11.9356 27.873 11.9331 27.8796 11.9295 27.8854ZM12.0635 27.1934L12.0559 27.1475L12.0549 27.1456C12.0585 27.1614 12.0607 27.1775 12.0635 27.1934ZM3.7245 25.1549C3.72908 25.1684 3.73419 25.1817 3.73886 25.1951C3.71686 25.132 3.6956 25.0682 3.67568 25.0037L3.7245 25.1549ZM5.77982 24.9798C5.81544 25.0498 5.8546 25.1169 5.8947 25.1827C5.85484 25.1173 5.81621 25.0503 5.78078 24.9807L5.77982 24.9798ZM3.4689 24.084C3.50283 24.3132 3.54789 24.5357 3.60388 24.7511C3.54771 24.5351 3.50288 24.3119 3.4689 24.0821V24.084ZM3.41625 23.6246C3.42087 23.6811 3.42666 23.7373 3.43252 23.7931C3.42553 23.7266 3.41955 23.6596 3.41434 23.5921L3.41625 23.6246ZM6.35516 18.8614C6.19486 19.2296 6.04428 19.603 5.90331 19.9802C5.5027 21.1814 5.32741 22.2807 5.36627 23.2217C5.32754 22.2809 5.50377 21.182 5.90427 19.9811C6.04532 19.6038 6.19477 19.2298 6.35516 18.8614ZM5.12024 15.1567C5.2107 15.3339 5.30607 15.5111 5.4036 15.6897C5.30081 15.5015 5.20082 15.3146 5.10588 15.128L5.12024 15.1567ZM11.8883 6.27337C9.38419 5.43987 7.50203 5.6439 6.57246 6.57197L6.57151 6.57102C5.9687 7.17431 5.67608 8.14454 5.75876 9.42684C5.83142 10.5519 6.19328 11.8803 6.84434 13.3182C8.657 10.8387 10.8405 8.65259 13.3176 6.83612C12.8507 6.62627 12.3735 6.43744 11.8883 6.27337ZM16.0066 7.85824C14.3739 8.89973 12.8607 10.1183 11.4949 11.4912C10.9394 12.0229 10.4141 12.5826 9.91727 13.1651C10.2754 12.7453 10.6485 12.3377 11.0373 11.9439L11.4959 11.4921C12.8616 10.1194 14.375 8.90157 16.0076 7.86016C17.6342 8.90433 19.143 10.1227 20.506 11.4931C20.981 11.9684 21.441 12.461 21.872 12.9574C21.4408 12.4607 20.9803 11.9668 20.505 11.4912C19.1419 10.1207 17.6335 8.90245 16.0066 7.85824ZM23.2544 13.0531C23.2196 13.0832 23.1824 13.1097 23.1443 13.1344C23.1553 13.1273 23.168 13.1229 23.1787 13.1153L23.2553 13.055C23.2672 13.0447 23.2765 13.0314 23.2879 13.0205C23.2766 13.0313 23.2661 13.0429 23.2544 13.0531ZM23.5913 12.2855C23.5922 12.3176 23.5917 12.3499 23.5894 12.3822C23.5865 12.423 23.58 12.4631 23.5722 12.5028C23.5737 12.495 23.5775 12.4876 23.5789 12.4798L23.5904 12.3841C23.5927 12.3513 23.5923 12.3181 23.5913 12.2855ZM5.56156 10.7801C5.58356 10.8797 5.60791 10.9802 5.63335 11.0816C5.6081 10.9808 5.58438 10.881 5.56251 10.782L5.56156 10.7801ZM12.0138 5.90108C9.47505 5.05562 7.39096 5.19817 6.29485 6.29252C5.67473 6.91278 5.36611 7.82695 5.35382 8.94162C5.36638 7.8276 5.67595 6.91445 6.29581 6.29443C7.39198 5.20014 9.47598 5.05747 12.0147 5.903C12.7239 6.14286 13.4157 6.43148 14.0853 6.76625L14.0873 6.7653C13.4169 6.43009 12.7238 6.14118 12.0138 5.90108Z" fill="white"/>
<path fill-rule="evenodd" clip-rule="evenodd" d="M15.2533 12.2492C15.9946 12.1017 16.7633 12.1774 17.4617 12.4664C18.1603 12.7556 18.758 13.2458 19.1782 13.8742C19.5982 14.5025 19.8222 15.2413 19.8224 15.997C19.8226 16.7528 19.599 17.4921 19.1791 18.1206C18.7593 18.7491 18.162 19.239 17.4637 19.5285C16.7652 19.8179 15.9958 19.8939 15.2542 19.7467C14.5128 19.5993 13.8312 19.2358 13.2965 18.7016L13.2956 18.6997C12.5805 17.9822 12.1784 17.0107 12.1784 15.9979C12.1784 14.9851 12.5805 14.0136 13.2956 13.2962C13.8302 12.7616 14.5118 12.3967 15.2533 12.2492ZM15.3308 19.361C14.6653 19.2288 14.0541 18.9017 13.5742 18.4221L13.5732 18.4212C13.49 18.3377 13.4113 18.2506 13.3377 18.1599C13.4115 18.251 13.4897 18.3393 13.5732 18.4231L13.5742 18.424C14.054 18.9035 14.6654 19.2288 15.3308 19.361ZM17.7671 18.936C17.6223 19.0231 17.4707 19.0996 17.3134 19.1648C17.0049 19.2926 16.6808 19.3729 16.3522 19.4069C16.5972 19.3816 16.8398 19.3324 17.075 19.2547L17.3134 19.1667C17.471 19.1014 17.6221 19.0233 17.7671 18.936ZM19.1026 17.4593C19.0305 17.612 18.9472 17.76 18.8527 17.9015C18.7131 18.1105 18.551 18.3018 18.3712 18.4738C18.4901 18.3599 18.6025 18.2387 18.7043 18.1082L18.8527 17.9034C18.9476 17.7614 19.0304 17.6126 19.1026 17.4593ZM16.2106 14.9404C16.0014 14.8989 15.7843 14.9209 15.5873 15.0026C15.3905 15.0843 15.2223 15.2225 15.1039 15.3998C14.9857 15.5769 14.922 15.7849 14.922 15.9979C14.9221 16.211 14.9855 16.4199 15.1039 16.597C15.2225 16.7742 15.3913 16.9127 15.5883 16.9942C15.7853 17.0756 16.0025 17.0971 16.2115 17.0555C16.4205 17.0138 16.6122 16.9104 16.7629 16.7597C16.9642 16.557 17.078 16.2827 17.0779 15.997C17.0776 15.7115 16.9641 15.4376 16.7629 15.2351L16.6423 15.1308C16.5149 15.0366 16.3673 14.9715 16.2106 14.9404ZM19.4299 15.996C19.43 16.1574 19.4189 16.3179 19.3964 16.4764C19.407 16.4015 19.4157 16.3262 19.4213 16.2506L19.4309 15.997L19.4299 15.996ZM14.5343 16.1128C14.5342 16.1109 14.5345 16.1089 14.5343 16.107L14.5305 15.9989C14.5304 15.7082 14.6161 15.4234 14.7775 15.1816C14.9389 14.9398 15.1685 14.7513 15.4371 14.6399C15.7055 14.5286 16.0011 14.4992 16.2862 14.5556C16.5714 14.6122 16.8338 14.7522 17.0396 14.9576C17.3146 15.2336 17.4692 15.6073 17.4694 15.997C17.4694 16.0611 17.4632 16.1245 17.455 16.1874C17.4633 16.124 17.4694 16.0597 17.4694 15.995C17.4691 15.6055 17.3147 15.2317 17.0396 14.9557C16.8338 14.7503 16.5714 14.6102 16.2862 14.5537C16.0011 14.4973 15.7055 14.5267 15.4371 14.638C15.1686 14.7493 14.9389 14.938 14.7775 15.1796C14.6161 15.4214 14.5304 15.7063 14.5305 15.997C14.5305 16.0357 14.5313 16.0743 14.5343 16.1128ZM12.5709 15.9979L12.5738 16.1032C12.5727 16.0676 12.5709 16.0318 12.5709 15.996V15.9979Z" fill="white"/>
</g>
</svg>
