<svg width="32" height="32" viewBox="0 0 32 32" fill="none" xmlns="http://www.w3.org/2000/svg">
<mask id="mask0_705_116458" style="mask-type:alpha" maskUnits="userSpaceOnUse" x="0" y="0" width="32" height="32">
<rect width="32" height="32" fill="#D9D9D9"/>
</mask>
<g mask="url(#mask0_705_116458)">
<path d="M15.9993 29.3333C14.1549 29.3333 12.4216 28.9833 10.7993 28.2833C9.17713 27.5833 7.76602 26.6333 6.56602 25.4333C5.36602 24.2333 4.41602 22.8222 3.71602 21.2C3.01602 19.5777 2.66602 17.8444 2.66602 16C2.66602 14.1555 3.01602 12.4222 3.71602 10.8C4.41602 9.17774 5.36602 7.76663 6.56602 6.56663C7.76602 5.36663 9.17713 4.41663 10.7993 3.71663C12.4216 3.01663 14.1549 2.66663 15.9993 2.66663C17.8438 2.66663 19.5771 3.01663 21.1993 3.71663C22.8216 4.41663 24.2327 5.36663 25.4327 6.56663C26.6327 7.76663 27.5827 9.17774 28.2827 10.8C28.9827 12.4222 29.3327 14.1555 29.3327 16C29.3327 17.8444 28.9827 19.5777 28.2827 21.2C27.5827 22.8222 26.6327 24.2333 25.4327 25.4333C24.2327 26.6333 22.8216 27.5833 21.1993 28.2833C19.5771 28.9833 17.8438 29.3333 15.9993 29.3333ZM15.9993 26.6666C17.2438 26.6666 18.416 26.4722 19.516 26.0833C20.616 25.6944 21.6216 25.1444 22.5327 24.4333L20.6327 22.5333C19.9882 23 19.2716 23.3611 18.4827 23.6166C17.6938 23.8722 16.866 24 15.9993 24C13.7771 24 11.8882 23.2222 10.3327 21.6666C8.77713 20.1111 7.99935 18.2222 7.99935 16C7.99935 13.7777 8.77713 11.8888 10.3327 10.3333C11.8882 8.77774 13.7771 7.99996 15.9993 7.99996C18.2216 7.99996 20.1105 8.77774 21.666 10.3333C23.2216 11.8888 23.9993 13.7777 23.9993 16C23.9993 16.8666 23.866 17.7 23.5993 18.5C23.3327 19.3 22.966 20.0222 22.4993 20.6666L24.3993 22.5666C25.1105 21.6555 25.666 20.6444 26.066 19.5333C26.466 18.4222 26.666 17.2444 26.666 16C26.666 13.0222 25.6327 10.5 23.566 8.43329C21.4993 6.36663 18.9771 5.33329 15.9993 5.33329C13.0216 5.33329 10.4993 6.36663 8.43268 8.43329C6.36602 10.5 5.33268 13.0222 5.33268 16C5.33268 18.9777 6.36602 21.5 8.43268 23.5666C10.4993 25.6333 13.0216 26.6666 15.9993 26.6666ZM15.9993 21.3333C16.4882 21.3333 16.9605 21.2722 17.416 21.15C17.8716 21.0277 18.2993 20.8444 18.6993 20.6L16.666 18.5666C16.5549 18.6111 16.4438 18.6388 16.3327 18.65C16.2216 18.6611 16.1105 18.6666 15.9993 18.6666C15.266 18.6666 14.6382 18.4055 14.116 17.8833C13.5938 17.3611 13.3327 16.7333 13.3327 16C13.3327 15.2666 13.5938 14.6388 14.116 14.1166C14.6382 13.5944 15.266 13.3333 15.9993 13.3333C16.7327 13.3333 17.3605 13.5944 17.8827 14.1166C18.4049 14.6388 18.666 15.2666 18.666 16C18.666 16.1333 18.6605 16.2611 18.6493 16.3833C18.6382 16.5055 18.6105 16.6222 18.566 16.7333L20.566 18.7333C20.8105 18.3333 20.9993 17.9055 21.1327 17.45C21.266 16.9944 21.3327 16.5111 21.3327 16C21.3327 14.5333 20.8105 13.2777 19.766 12.2333C18.7216 11.1888 17.466 10.6666 15.9993 10.6666C14.5327 10.6666 13.2771 11.1888 12.2327 12.2333C11.1882 13.2777 10.666 14.5333 10.666 16C10.666 17.4666 11.1882 18.7222 12.2327 19.7666C13.2771 20.8111 14.5327 21.3333 15.9993 21.3333Z" fill="white"/>
</g>
</svg>
