<svg width="32" height="32" viewBox="0 0 32 32" fill="none" xmlns="http://www.w3.org/2000/svg">
<mask id="mask0_705_54410" style="mask-type:alpha" maskUnits="userSpaceOnUse" x="0" y="0" width="32" height="32">
<rect width="32" height="32" fill="#D9D9D9"/>
</mask>
<g mask="url(#mask0_705_54410)">
<path d="M7.25007 27C7.54886 27 7.8468 26.8864 8.07495 26.6582C8.5304 26.2027 8.5304 25.4642 8.07495 25.0087C5.76722 22.7004 4.33336 19.4399 4.33336 16.4999C4.33336 13.5595 5.76722 10.2996 8.07495 7.99128C8.5304 7.53583 8.5304 6.79725 8.07495 6.3418C7.61979 5.88607 6.88035 5.88607 6.42519 6.3418C3.65432 9.11267 2 12.9101 2 16.4999C2 20.0893 3.65432 23.8873 6.42519 26.6582C6.65277 26.8864 6.95128 27 7.25007 27Z" fill="white"/>
<path d="M10.9902 9.83783C10.5333 9.38295 9.79476 9.38409 9.34045 9.84153C7.64113 11.5471 6.66699 13.9733 6.66699 16.4978C6.66699 19.0226 7.64113 21.4488 9.34045 23.1544C9.5686 23.3837 9.86768 23.4979 10.167 23.4979C10.4644 23.4979 10.7626 23.3848 10.9902 23.1581C11.4468 22.7035 11.4485 21.9644 10.9936 21.5084C9.72725 20.236 9.00036 18.4096 9.00036 16.4978C9.00036 14.5857 9.72725 12.7599 10.9936 11.4876C11.4485 11.0316 11.4468 10.2924 10.9902 9.83783Z" fill="white"/>
<path d="M23.9256 6.3418C23.4701 6.79725 23.4701 7.53583 23.9256 7.99128C26.2333 10.2996 27.6672 13.5595 27.6672 16.4999C27.6672 19.4399 26.2333 22.7004 23.9256 25.0087C23.4701 25.4642 23.4701 26.2027 23.9256 26.6582C24.1537 26.8864 24.4517 27 24.7505 27C25.0492 27 25.3478 26.8864 25.5753 26.6582C28.3462 23.8873 30.0005 20.0893 30.0005 16.4999C30.0005 12.9101 28.3462 9.11267 25.5753 6.3418C25.1202 5.88607 24.3807 5.88607 23.9256 6.3418Z" fill="white"/>
<path d="M21.8337 23.4977C22.133 23.4977 22.4321 23.3835 22.6603 23.1542C24.3596 21.4486 25.3337 19.0224 25.3337 16.4976C25.3337 13.9731 24.3596 11.5469 22.6603 9.84132C22.206 9.38445 21.4668 9.38274 21.0105 9.83762C20.5539 10.2922 20.5522 11.0314 21.0071 11.4874C22.2735 12.7597 23.0004 14.5855 23.0004 16.4976C23.0004 18.4094 22.2735 20.2358 21.0071 21.5081C20.5522 21.9642 20.5539 22.7033 21.0105 23.1579C21.2381 23.3846 21.5355 23.4977 21.8337 23.4977Z" fill="white"/>
<path d="M15.9997 21.1689C18.5729 21.1689 20.6665 19.0754 20.6665 16.5022C20.6665 13.9293 18.5729 11.8354 15.9997 11.8354C13.4265 11.8354 11.333 13.9293 11.333 16.5022C11.333 19.0754 13.4265 21.1689 15.9997 21.1689ZM15.9997 14.1688C17.2866 14.1688 18.3331 15.2156 18.3331 16.5022C18.3331 17.7891 17.2866 18.8355 15.9997 18.8355C14.7129 18.8355 13.6664 17.7891 13.6664 16.5022C13.6664 15.2156 14.7129 14.1688 15.9997 14.1688Z" fill="white"/>
</g>
</svg>
