<svg width="32" height="32" viewBox="0 0 32 32" fill="none" xmlns="http://www.w3.org/2000/svg">
<mask id="mask0_705_63099" style="mask-type:alpha" maskUnits="userSpaceOnUse" x="0" y="0" width="32" height="32">
<rect width="32" height="32" fill="#D9D9D9"/>
</mask>
<g mask="url(#mask0_705_63099)">
<path d="M7.66667 23.9999L7.13333 23.5333C5.97778 22.511 5.16667 21.3444 4.7 20.0333C4.23333 18.7221 4 17.3999 4 16.0666C4 13.9777 4.52778 12.0833 5.58333 10.3833C6.63889 8.68325 8.06667 7.3777 9.86667 6.46659C10.1778 6.28881 10.5111 6.2777 10.8667 6.43325C11.2222 6.58881 11.4556 6.84436 11.5667 7.19992C11.6778 7.53325 11.6722 7.86659 11.55 8.19992C11.4278 8.53325 11.2111 8.78881 10.9 8.96659C9.61111 9.6777 8.58333 10.661 7.81667 11.9166C7.05 13.1721 6.66667 14.5555 6.66667 16.0666C6.66667 17.0666 6.85556 18.0388 7.23333 18.9833C7.61111 19.9277 8.2 20.7999 9 21.5999L9.33333 21.9333V19.9999C9.33333 19.6221 9.46111 19.3055 9.71667 19.0499C9.97222 18.7944 10.2889 18.6666 10.6667 18.6666C11.0444 18.6666 11.3611 18.7944 11.6167 19.0499C11.8722 19.3055 12 19.6221 12 19.9999V25.3333C12 25.711 11.8722 26.0277 11.6167 26.2833C11.3611 26.5388 11.0444 26.6666 10.6667 26.6666H5.33333C4.95556 26.6666 4.63889 26.5388 4.38333 26.2833C4.12778 26.0277 4 25.711 4 25.3333C4 24.9555 4.12778 24.6388 4.38333 24.3833C4.63889 24.1277 4.95556 23.9999 5.33333 23.9999H7.66667ZM22.6667 10.0666V11.9999C22.6667 12.3777 22.5389 12.6944 22.2833 12.9499C22.0278 13.2055 21.7111 13.3333 21.3333 13.3333C20.9556 13.3333 20.6389 13.2055 20.3833 12.9499C20.1278 12.6944 20 12.3777 20 11.9999V6.66659C20 6.28881 20.1278 5.97214 20.3833 5.71659C20.6389 5.46103 20.9556 5.33325 21.3333 5.33325H26.6667C27.0444 5.33325 27.3611 5.46103 27.6167 5.71659C27.8722 5.97214 28 6.28881 28 6.66659C28 7.04436 27.8722 7.36103 27.6167 7.61659C27.3611 7.87214 27.0444 7.99992 26.6667 7.99992H24.3333L24.8667 8.46659C25.7778 9.39992 26.4778 10.3888 26.9667 11.4333C27.4556 12.4777 27.7667 13.5555 27.9 14.6666H25.2C25.0889 13.8888 24.85 13.1444 24.4833 12.4333C24.1167 11.7221 23.6222 11.0444 23 10.3999L22.6667 10.0666ZM23.2 30.6666C23.0222 30.6666 22.8833 30.6166 22.7833 30.5166C22.6833 30.4166 22.6111 30.2888 22.5667 30.1333L22.2667 28.6666C22 28.5555 21.75 28.4388 21.5167 28.3166C21.2833 28.1944 21.0444 28.0444 20.8 27.8666L19.3667 28.2999C19.2111 28.3444 19.0667 28.3388 18.9333 28.2833C18.8 28.2277 18.6889 28.1333 18.6 27.9999L17.8 26.6666C17.7111 26.5333 17.6889 26.3888 17.7333 26.2333C17.7778 26.0777 17.8556 25.9444 17.9667 25.8333L19.0667 24.8666C19.0222 24.5555 19 24.2666 19 23.9999C19 23.7333 19.0222 23.4444 19.0667 23.1333L17.9667 22.1666C17.8556 22.0555 17.7778 21.9221 17.7333 21.7666C17.6889 21.611 17.7111 21.4666 17.8 21.3333L18.6 19.9999C18.6889 19.8666 18.8 19.7721 18.9333 19.7166C19.0667 19.661 19.2111 19.6555 19.3667 19.6999L20.8 20.1333C21.0444 19.9555 21.2833 19.8055 21.5167 19.6833C21.75 19.561 22 19.4444 22.2667 19.3333L22.5667 17.8666C22.6111 17.711 22.6833 17.5833 22.7833 17.4833C22.8833 17.3833 23.0222 17.3333 23.2 17.3333H24.8C24.9778 17.3333 25.1167 17.3833 25.2167 17.4833C25.3167 17.5833 25.3889 17.711 25.4333 17.8666L25.7333 19.3333C26 19.4444 26.25 19.5666 26.4833 19.6999C26.7167 19.8333 26.9556 19.9999 27.2 20.1999L28.6 19.6999C28.7556 19.6555 28.9056 19.661 29.05 19.7166C29.1944 19.7721 29.3111 19.8666 29.4 19.9999L30.2 21.3999C30.2889 21.5333 30.3167 21.6777 30.2833 21.8333C30.25 21.9888 30.1778 22.1221 30.0667 22.2333L28.9333 23.1999C28.9778 23.4666 29 23.7444 29 24.0333C29 24.3221 28.9778 24.5999 28.9333 24.8666L30.0333 25.8333C30.1444 25.9444 30.2222 26.0777 30.2667 26.2333C30.3111 26.3888 30.2889 26.5333 30.2 26.6666L29.4 27.9999C29.3111 28.1333 29.2 28.2277 29.0667 28.2833C28.9333 28.3388 28.7889 28.3444 28.6333 28.2999L27.2 27.8666C26.9556 28.0444 26.7167 28.1944 26.4833 28.3166C26.25 28.4388 26 28.5555 25.7333 28.6666L25.4333 30.1333C25.3889 30.2888 25.3167 30.4166 25.2167 30.5166C25.1167 30.6166 24.9778 30.6666 24.8 30.6666H23.2ZM24 26.6666C24.7333 26.6666 25.3611 26.4055 25.8833 25.8833C26.4056 25.361 26.6667 24.7333 26.6667 23.9999C26.6667 23.2666 26.4056 22.6388 25.8833 22.1166C25.3611 21.5944 24.7333 21.3333 24 21.3333C23.2667 21.3333 22.6389 21.5944 22.1167 22.1166C21.5944 22.6388 21.3333 23.2666 21.3333 23.9999C21.3333 24.7333 21.5944 25.361 22.1167 25.8833C22.6389 26.4055 23.2667 26.6666 24 26.6666Z" fill="white"/>
</g>
</svg>
