<svg width="25" height="24" viewBox="0 0 25 24" fill="none" xmlns="http://www.w3.org/2000/svg">
<mask id="mask0_705_28665" style="mask-type:alpha" maskUnits="userSpaceOnUse" x="0" y="0" width="25" height="24">
<rect x="0.5" width="24" height="24" fill="#D9D9D9"/>
</mask>
<g mask="url(#mask0_705_28665)">
<path d="M12.5 20.3249C12.2667 20.3249 12.0292 20.2832 11.7875 20.1999C11.5458 20.1166 11.3333 19.9832 11.15 19.7999L9.425 18.2249C7.65833 16.6082 6.0625 15.0041 4.6375 13.4124C3.2125 11.8207 2.5 10.0666 2.5 8.1499C2.5 6.58324 3.025 5.2749 4.075 4.2249C5.125 3.1749 6.43333 2.6499 8 2.6499C8.88333 2.6499 9.71667 2.8374 10.5 3.2124C11.2833 3.5874 11.95 4.0999 12.5 4.7499C13.05 4.0999 13.7167 3.5874 14.5 3.2124C15.2833 2.8374 16.1167 2.6499 17 2.6499C18.5667 2.6499 19.875 3.1749 20.925 4.2249C21.975 5.2749 22.5 6.58324 22.5 8.1499C22.5 10.0666 21.7917 11.8249 20.375 13.4249C18.9583 15.0249 17.35 16.6332 15.55 18.2499L13.85 19.7999C13.6667 19.9832 13.4542 20.1166 13.2125 20.1999C12.9708 20.2832 12.7333 20.3249 12.5 20.3249ZM11.55 6.7499C11.0667 6.06657 10.55 5.54574 10 5.1874C9.45 4.82907 8.78333 4.6499 8 4.6499C7 4.6499 6.16667 4.98324 5.5 5.6499C4.83333 6.31657 4.5 7.1499 4.5 8.1499C4.5 9.01657 4.80833 9.9374 5.425 10.9124C6.04167 11.8874 6.77917 12.8332 7.6375 13.7499C8.49583 14.6666 9.37917 15.5249 10.2875 16.3249C11.1958 17.1249 11.9333 17.7832 12.5 18.2999C13.0667 17.7832 13.8042 17.1249 14.7125 16.3249C15.6208 15.5249 16.5042 14.6666 17.3625 13.7499C18.2208 12.8332 18.9583 11.8874 19.575 10.9124C20.1917 9.9374 20.5 9.01657 20.5 8.1499C20.5 7.1499 20.1667 6.31657 19.5 5.6499C18.8333 4.98324 18 4.6499 17 4.6499C16.2167 4.6499 15.55 4.82907 15 5.1874C14.45 5.54574 13.9333 6.06657 13.45 6.7499C13.3333 6.91657 13.1917 7.04157 13.025 7.1249C12.8583 7.20824 12.6833 7.2499 12.5 7.2499C12.3167 7.2499 12.1417 7.20824 11.975 7.1249C11.8083 7.04157 11.6667 6.91657 11.55 6.7499Z" fill="#146C8F"/>
</g>
</svg>
