<svg width="32" height="32" viewBox="0 0 32 32" fill="none" xmlns="http://www.w3.org/2000/svg">
<mask id="mask0_705_45837" style="mask-type:alpha" maskUnits="userSpaceOnUse" x="0" y="0" width="32" height="32">
<rect width="32" height="32" fill="#D9D9D9"/>
</mask>
<g mask="url(#mask0_705_45837)">
<path d="M14.5663 14.9667L12.6663 13.0667C12.533 12.9333 12.3886 12.8333 12.233 12.7667C12.0775 12.7 11.9163 12.6667 11.7497 12.6667C11.583 12.6667 11.4163 12.7 11.2497 12.7667C11.083 12.8333 10.933 12.9333 10.7997 13.0667C10.5552 13.3111 10.433 13.6222 10.433 14C10.433 14.3778 10.5552 14.6889 10.7997 14.9333L13.633 17.8C13.8997 18.0667 14.2108 18.2 14.5663 18.2C14.9219 18.2 15.233 18.0667 15.4997 17.8L21.6997 12.1333C21.6997 11.7778 21.6775 11.4333 21.633 11.1C21.5886 10.7667 21.4441 10.4778 21.1997 10.2333C20.933 9.96667 20.6163 9.83333 20.2497 9.83333C19.883 9.83333 19.5663 9.96667 19.2997 10.2333L14.5663 14.9667ZM1.33301 28V25.3333H29.333C29.7108 25.3333 30.0275 25.4611 30.283 25.7167C30.5386 25.9722 30.6663 26.2889 30.6663 26.6667C30.6663 27.0444 30.5386 27.3611 30.283 27.6167C30.0275 27.8722 29.7108 28 29.333 28H1.33301ZM5.33301 24C4.59967 24 3.9719 23.7389 3.44967 23.2167C2.92745 22.6944 2.66634 22.0667 2.66634 21.3333V6.66667C2.66634 5.93333 2.92745 5.30556 3.44967 4.78333C3.9719 4.26111 4.59967 4 5.33301 4H26.6663C27.3997 4 28.0275 4.26111 28.5497 4.78333C29.0719 5.30556 29.333 5.93333 29.333 6.66667V21.3333C29.333 22.0667 29.0719 22.6944 28.5497 23.2167C28.0275 23.7389 27.3997 24 26.6663 24H5.33301ZM5.33301 21.3333H26.6663V6.66667H5.33301V21.3333Z" fill="white"/>
</g>
</svg>
