<svg width="32" height="32" viewBox="0 0 32 32" fill="none" xmlns="http://www.w3.org/2000/svg">
<mask id="mask0_705_45829" style="mask-type:alpha" maskUnits="userSpaceOnUse" x="0" y="0" width="32" height="32">
<rect width="32" height="32" fill="#D9D9D9"/>
</mask>
<g mask="url(#mask0_705_45829)">
<path d="M6.66667 28C5.93333 28 5.30556 27.7389 4.78333 27.2167C4.26111 26.6944 4 26.0667 4 25.3333V6.66667C4 5.93333 4.26111 5.30556 4.78333 4.78333C5.30556 4.26111 5.93333 4 6.66667 4H25.3333C26.0667 4 26.6944 4.26111 27.2167 4.78333C27.7389 5.30556 28 5.93333 28 6.66667V25.3333C28 26.0667 27.7389 26.6944 27.2167 27.2167C26.6944 27.7389 26.0667 28 25.3333 28H6.66667ZM6.66667 25.3333H25.3333V16H6.66667V25.3333ZM6.66667 13.3333H25.3333V6.66667H6.66667V13.3333ZM22.6667 10.6667C23.0444 10.6667 23.3611 10.5389 23.6167 10.2833C23.8722 10.0278 24 9.71111 24 9.33333C24 8.95556 23.8722 8.63889 23.6167 8.38333C23.3611 8.12778 23.0444 8 22.6667 8H17.3333C16.9556 8 16.6389 8.12778 16.3833 8.38333C16.1278 8.63889 16 8.95556 16 9.33333C16 9.71111 16.1278 10.0278 16.3833 10.2833C16.6389 10.5389 16.9556 10.6667 17.3333 10.6667H22.6667Z" fill="white"/>
</g>
</svg>
