<svg width="32" height="32" viewBox="0 0 32 32" fill="none" xmlns="http://www.w3.org/2000/svg">
<mask id="mask0_705_97376" style="mask-type:alpha" maskUnits="userSpaceOnUse" x="0" y="0" width="32" height="32">
<rect width="32" height="32" fill="#D9D9D9"/>
</mask>
<g mask="url(#mask0_705_97376)">
<path d="M10.6667 28C8.82222 28 7.25 27.35 5.95 26.05C4.65 24.75 4 23.1778 4 21.3333C4 20.2667 4.23333 19.2722 4.7 18.35C5.16667 17.4278 5.82222 16.6444 6.66667 16V8C6.66667 6.88889 7.05556 5.94444 7.83333 5.16667C8.61111 4.38889 9.55556 4 10.6667 4C11.7778 4 12.7222 4.38889 13.5 5.16667C14.2778 5.94444 14.6667 6.88889 14.6667 8V16C15.5111 16.6444 16.1667 17.4278 16.6333 18.35C17.1 19.2722 17.3333 20.2667 17.3333 21.3333C17.3333 23.1778 16.6833 24.75 15.3833 26.05C14.0833 27.35 12.5111 28 10.6667 28ZM6.66667 21.3333H14.6667C14.6667 20.6889 14.5278 20.0889 14.25 19.5333C13.9722 18.9778 13.5778 18.5111 13.0667 18.1333L12 17.3333V8C12 7.62222 11.8722 7.30556 11.6167 7.05C11.3611 6.79444 11.0444 6.66667 10.6667 6.66667C10.2889 6.66667 9.97222 6.79444 9.71667 7.05C9.46111 7.30556 9.33333 7.62222 9.33333 8V17.3333L8.26667 18.1333C7.75556 18.5111 7.36111 18.9778 7.08333 19.5333C6.80556 20.0889 6.66667 20.6889 6.66667 21.3333ZM25.0667 25.7333L22 22.6667C21.7556 22.4 21.6333 22.0833 21.6333 21.7167C21.6333 21.35 21.7667 21.0444 22.0333 20.8C22.3 20.5556 22.6167 20.4278 22.9833 20.4167C23.35 20.4056 23.6556 20.5333 23.9 20.8L24.6667 21.5667V6.66667C24.6667 6.28889 24.7944 5.97222 25.05 5.71667C25.3056 5.46111 25.6222 5.33333 26 5.33333C26.3778 5.33333 26.6944 5.46111 26.95 5.71667C27.2056 5.97222 27.3333 6.28889 27.3333 6.66667V21.6L28.1333 20.8C28.3778 20.5556 28.6889 20.4333 29.0667 20.4333C29.4444 20.4333 29.7556 20.5556 30 20.8C30.2444 21.0444 30.3667 21.3556 30.3667 21.7333C30.3667 22.1111 30.2444 22.4222 30 22.6667L26.9333 25.7333C26.6667 26 26.3556 26.1333 26 26.1333C25.6444 26.1333 25.3333 26 25.0667 25.7333Z" fill="white"/>
</g>
</svg>
