<svg width="32" height="32" viewBox="0 0 32 32" fill="none" xmlns="http://www.w3.org/2000/svg">
<mask id="mask0_705_54402" style="mask-type:alpha" maskUnits="userSpaceOnUse" x="0" y="0" width="32" height="32">
<rect width="32" height="32" fill="#D9D9D9"/>
</mask>
<g mask="url(#mask0_705_54402)">
<path d="M4 23.9979V18.6646C4 18.2868 4.12778 17.9701 4.38333 17.7146C4.63889 17.459 4.95556 17.3312 5.33333 17.3312H13.3333C13.7111 17.3312 14.0278 17.459 14.2833 17.7146C14.5389 17.9701 14.6667 18.2868 14.6667 18.6646V23.9979C14.6667 24.3757 14.5389 24.6923 14.2833 24.9479C14.0278 25.2034 13.7111 25.3312 13.3333 25.3312H5.33333C4.95556 25.3312 4.63889 25.2034 4.38333 24.9479C4.12778 24.6923 4 24.3757 4 23.9979ZM17.3333 23.9979V18.6646C17.3333 18.2868 17.4611 17.9701 17.7167 17.7146C17.9722 17.459 18.2889 17.3312 18.6667 17.3312H26.6667C27.0444 17.3312 27.3611 17.459 27.6167 17.7146C27.8722 17.9701 28 18.2868 28 18.6646V23.9979C28 24.3757 27.8722 24.6923 27.6167 24.9479C27.3611 25.2034 27.0444 25.3312 26.6667 25.3312H18.6667C18.2889 25.3312 17.9722 25.2034 17.7167 24.9479C17.4611 24.6923 17.3333 24.3757 17.3333 23.9979ZM4 13.3312V7.99788C4 7.62011 4.12778 7.30344 4.38333 7.04788C4.63889 6.79233 4.95556 6.66455 5.33333 6.66455H13.3333C13.7111 6.66455 14.0278 6.79233 14.2833 7.04788C14.5389 7.30344 14.6667 7.62011 14.6667 7.99788V13.3312C14.6667 13.709 14.5389 14.0257 14.2833 14.2812C14.0278 14.5368 13.7111 14.6646 13.3333 14.6646H5.33333C4.95556 14.6646 4.63889 14.5368 4.38333 14.2812C4.12778 14.0257 4 13.709 4 13.3312ZM17.3333 13.3312V7.99788C17.3333 7.62011 17.4611 7.30344 17.7167 7.04788C17.9722 6.79233 18.2889 6.66455 18.6667 6.66455H26.6667C27.0444 6.66455 27.3611 6.79233 27.6167 7.04788C27.8722 7.30344 28 7.62011 28 7.99788V13.3312C28 13.709 27.8722 14.0257 27.6167 14.2812C27.3611 14.5368 27.0444 14.6646 26.6667 14.6646H18.6667C18.2889 14.6646 17.9722 14.5368 17.7167 14.2812C17.4611 14.0257 17.3333 13.709 17.3333 13.3312ZM6.66667 22.6646H12V19.9979H6.66667V22.6646ZM20 22.6646H25.3333V19.9979H20V22.6646ZM6.66667 11.9979H12V9.33122H6.66667V11.9979Z" fill="white"/>
</g>
</svg>
