<svg width="20" height="21" viewBox="0 0 20 21" fill="none" xmlns="http://www.w3.org/2000/svg">
<g clip-path="url(#clip0_639_194543)">
<path d="M10 20.5C15.5228 20.5 20 16.0228 20 10.5C20 4.97715 15.5228 0.5 10 0.5C4.47715 0.5 0 4.97715 0 10.5C0 16.0228 4.47715 20.5 10 20.5Z" fill="#F0F0F0"/>
<path d="M2.06742 4.41016C1.28191 5.43215 0.689609 6.61008 0.344727 7.88973H5.54699L2.06742 4.41016Z" fill="#0052B4"/>
<path d="M19.6553 7.88969C19.3104 6.61008 18.7181 5.43215 17.9326 4.41016L14.4531 7.88969H19.6553Z" fill="#0052B4"/>
<path d="M0.344727 13.1094C0.689648 14.389 1.28195 15.5669 2.06742 16.5889L5.54688 13.1094H0.344727Z" fill="#0052B4"/>
<path d="M16.0889 2.56648C15.0669 1.78098 13.889 1.18867 12.6094 0.84375V6.04598L16.0889 2.56648Z" fill="#0052B4"/>
<path d="M3.91211 18.4326C4.9341 19.2181 6.11203 19.8104 7.39164 20.1553V14.9531L3.91211 18.4326Z" fill="#0052B4"/>
<path d="M7.39148 0.84375C6.11187 1.18867 4.93394 1.78098 3.91199 2.56645L7.39148 6.04594V0.84375Z" fill="#0052B4"/>
<path d="M12.6094 20.1553C13.889 19.8104 15.0669 19.2181 16.0889 18.4326L12.6094 14.9531V20.1553Z" fill="#0052B4"/>
<path d="M14.4531 13.1094L17.9326 16.5889C18.7181 15.567 19.3104 14.389 19.6553 13.1094H14.4531Z" fill="#0052B4"/>
<path d="M19.9154 9.19566H11.3044H11.3044V0.584648C10.8774 0.529063 10.4421 0.5 10 0.5C9.55785 0.5 9.12262 0.529063 8.69566 0.584648V9.19559V9.19563H0.0846484C0.0290625 9.62262 0 10.0579 0 10.5C0 10.9421 0.0290625 11.3774 0.0846484 11.8043H8.69559H8.69563V20.4154C9.12262 20.4709 9.55785 20.5 10 20.5C10.4421 20.5 10.8774 20.471 11.3043 20.4154V11.8044V11.8044H19.9154C19.9709 11.3774 20 10.9421 20 10.5C20 10.0579 19.9709 9.62262 19.9154 9.19566Z" fill="#D80027"/>
<path d="M12.6094 13.1094L17.0717 17.5718C17.277 17.3666 17.4727 17.1521 17.6595 16.9298L13.8391 13.1094H12.6094V13.1094Z" fill="#D80027"/>
<path d="M7.39109 13.1094H7.39102L2.92871 17.5717C3.13387 17.7769 3.34836 17.9727 3.5707 18.1595L7.39109 14.339V13.1094Z" fill="#D80027"/>
<path d="M7.39195 7.89215V7.89207L2.92961 3.42969C2.72438 3.63484 2.52859 3.84934 2.3418 4.07168L6.16223 7.89211H7.39195V7.89215Z" fill="#D80027"/>
<path d="M12.6094 7.89004L17.0718 3.42762C16.8666 3.22238 16.6521 3.0266 16.4298 2.83984L12.6094 6.66027V7.89004Z" fill="#D80027"/>
</g>
<defs>
<clipPath id="clip0_639_194543">
<rect width="20" height="20" fill="white" transform="translate(0 0.5)"/>
</clipPath>
</defs>
</svg>
