<svg width="32" height="32" viewBox="0 0 32 32" fill="none" xmlns="http://www.w3.org/2000/svg">
<mask id="mask0_705_71670" style="mask-type:alpha" maskUnits="userSpaceOnUse" x="0" y="0" width="32" height="32">
<rect width="32" height="32" fill="#D9D9D9"/>
</mask>
<g mask="url(#mask0_705_71670)">
<path d="M7.99935 5.33334C8.26602 5.06667 8.58268 4.93334 8.94935 4.93334C9.31602 4.93334 9.63268 5.06667 9.89935 5.33334L11.9993 7.46667C12.266 7.73334 12.3993 8.04445 12.3993 8.40001C12.3993 8.75556 12.266 9.06668 11.9993 9.33334C11.7327 9.60001 11.416 9.73334 11.0493 9.73334C10.6827 9.73334 10.366 9.60001 10.0993 9.33334L7.96602 7.23334C7.69935 6.96668 7.57157 6.65001 7.58268 6.28334C7.59379 5.91668 7.73268 5.60001 7.99935 5.33334ZM17.3327 1.46667C17.7105 1.46667 18.0271 1.59445 18.2827 1.85001C18.5382 2.10556 18.666 2.42223 18.666 2.80001V5.80001C18.666 6.17779 18.5382 6.49445 18.2827 6.75001C18.0271 7.00556 17.7105 7.13334 17.3327 7.13334C16.9549 7.13334 16.6382 7.00556 16.3827 6.75001C16.1271 6.49445 15.9993 6.17779 15.9993 5.80001V2.80001C15.9993 2.42223 16.1271 2.10556 16.3827 1.85001C16.6382 1.59445 16.9549 1.46667 17.3327 1.46667ZM22.666 20C22.9327 19.7333 23.2493 19.6 23.616 19.6C23.9827 19.6 24.2994 19.7333 24.566 20L26.666 22.1333C26.9327 22.4 27.066 22.7111 27.066 23.0667C27.066 23.4222 26.9327 23.7333 26.666 24C26.3993 24.2667 26.0827 24.4 25.716 24.4C25.3493 24.4 25.0327 24.2667 24.766 24L22.6327 21.9C22.366 21.6333 22.2382 21.3167 22.2493 20.95C22.2605 20.5833 22.3993 20.2667 22.666 20ZM26.666 5.33334C26.9327 5.60001 27.066 5.91668 27.066 6.28334C27.066 6.65001 26.9327 6.96668 26.666 7.23334L24.5327 9.36668C24.266 9.63334 23.9549 9.76112 23.5993 9.75001C23.2438 9.7389 22.9327 9.60001 22.666 9.33334C22.3993 9.06668 22.266 8.75001 22.266 8.38334C22.266 8.01667 22.3993 7.70001 22.666 7.43334L24.766 5.33334C25.0327 5.06667 25.3493 4.93334 25.716 4.93334C26.0827 4.93334 26.3993 5.06667 26.666 5.33334ZM30.5327 14.6667C30.5327 15.0445 30.4049 15.3611 30.1494 15.6167C29.8938 15.8722 29.5771 16 29.1993 16H26.1993C25.8216 16 25.5049 15.8722 25.2493 15.6167C24.9938 15.3611 24.866 15.0445 24.866 14.6667C24.866 14.2889 24.9938 13.9722 25.2493 13.7167C25.5049 13.4611 25.8216 13.3333 26.1993 13.3333H29.1993C29.5771 13.3333 29.8938 13.4611 30.1494 13.7167C30.4049 13.9722 30.5327 14.2889 30.5327 14.6667ZM6.83268 28.9333L3.06602 25.1667C2.79935 24.9 2.66602 24.5889 2.66602 24.2333C2.66602 23.8778 2.79935 23.5667 3.06602 23.3L15.166 11.1667C15.9438 10.3889 16.8882 10 17.9993 10C19.1105 10 20.0549 10.3889 20.8327 11.1667C21.6105 11.9445 21.9993 12.8889 21.9993 14C21.9993 15.1111 21.6105 16.0556 20.8327 16.8333L8.69935 28.9333C8.43268 29.2 8.12157 29.3333 7.76602 29.3333C7.41046 29.3333 7.09935 29.2 6.83268 28.9333ZM7.76602 26.1333L16.1327 17.7667L14.2327 15.9L5.89935 24.2333L7.76602 26.1333Z" fill="white"/>
</g>
</svg>
