<svg width="34" height="34" viewBox="0 0 34 34" fill="none" xmlns="http://www.w3.org/2000/svg">
<mask id="mask0_705_116466" style="mask-type:alpha" maskUnits="userSpaceOnUse" x="0" y="0" width="34" height="34">
<rect width="34" height="34" fill="#D9D9D9"/>
</mask>
<g mask="url(#mask0_705_116466)">
<path d="M8.4987 29.75C6.94036 29.75 5.60634 29.1951 4.49661 28.0854C3.38689 26.9757 2.83203 25.6417 2.83203 24.0833C2.83203 22.525 3.38689 21.191 4.49661 20.0813C5.60634 18.9715 6.94036 18.4167 8.4987 18.4167C10.057 18.4167 11.3911 18.9715 12.5008 20.0813C13.6105 21.191 14.1654 22.525 14.1654 24.0833C14.1654 25.6417 13.6105 26.9757 12.5008 28.0854C11.3911 29.1951 10.057 29.75 8.4987 29.75ZM25.4987 29.75C23.9404 29.75 22.6063 29.1951 21.4966 28.0854C20.3869 26.9757 19.832 25.6417 19.832 24.0833C19.832 22.525 20.3869 21.191 21.4966 20.0813C22.6063 18.9715 23.9404 18.4167 25.4987 18.4167C27.057 18.4167 28.3911 18.9715 29.5008 20.0813C30.6105 21.191 31.1654 22.525 31.1654 24.0833C31.1654 25.6417 30.6105 26.9757 29.5008 28.0854C28.3911 29.1951 27.057 29.75 25.4987 29.75ZM8.4987 26.9167C9.27786 26.9167 9.94488 26.6392 10.4997 26.0844C11.0546 25.5295 11.332 24.8625 11.332 24.0833C11.332 23.3042 11.0546 22.6372 10.4997 22.0823C9.94488 21.5274 9.27786 21.25 8.4987 21.25C7.71953 21.25 7.05252 21.5274 6.49766 22.0823C5.9428 22.6372 5.66536 23.3042 5.66536 24.0833C5.66536 24.8625 5.9428 25.5295 6.49766 26.0844C7.05252 26.6392 7.71953 26.9167 8.4987 26.9167ZM25.4987 26.9167C26.2779 26.9167 26.9449 26.6392 27.4997 26.0844C28.0546 25.5295 28.332 24.8625 28.332 24.0833C28.332 23.3042 28.0546 22.6372 27.4997 22.0823C26.9449 21.5274 26.2779 21.25 25.4987 21.25C24.7195 21.25 24.0525 21.5274 23.4977 22.0823C22.9428 22.6372 22.6654 23.3042 22.6654 24.0833C22.6654 24.8625 22.9428 25.5295 23.4977 26.0844C24.0525 26.6392 24.7195 26.9167 25.4987 26.9167ZM16.9987 15.5833C15.4404 15.5833 14.1063 15.0285 12.9966 13.9187C11.8869 12.809 11.332 11.475 11.332 9.91667C11.332 8.35833 11.8869 7.02431 12.9966 5.91458C14.1063 4.80486 15.4404 4.25 16.9987 4.25C18.557 4.25 19.8911 4.80486 21.0008 5.91458C22.1105 7.02431 22.6654 8.35833 22.6654 9.91667C22.6654 11.475 22.1105 12.809 21.0008 13.9187C19.8911 15.0285 18.557 15.5833 16.9987 15.5833ZM16.9987 12.75C17.7779 12.75 18.4449 12.4726 18.9997 11.9177C19.5546 11.3628 19.832 10.6958 19.832 9.91667C19.832 9.1375 19.5546 8.47049 18.9997 7.91563C18.4449 7.36076 17.7779 7.08333 16.9987 7.08333C16.2195 7.08333 15.5525 7.36076 14.9977 7.91563C14.4428 8.47049 14.1654 9.1375 14.1654 9.91667C14.1654 10.6958 14.4428 11.3628 14.9977 11.9177C15.5525 12.4726 16.2195 12.75 16.9987 12.75Z" fill="white"/>
</g>
</svg>
